<svg width="24" height="24" viewBox="0 0 24 24" xmlns="http://www.w3.org/2000/svg">
<path fill-rule="evenodd" clip-rule="evenodd" d="M18.7081 5.29289C19.0986 5.68342 19.0986 6.31658 18.7081 6.70711L6.70808 18.7071C6.31756 19.0976 5.68439 19.0976 5.29387 18.7071C4.90335 18.3166 4.90335 17.6834 5.29387 17.2929L17.2939 5.29289C17.6844 4.90237 18.3176 4.90237 18.7081 5.29289Z"/>
<path fill-rule="evenodd" clip-rule="evenodd" d="M5.29387 5.29289C5.68439 4.90237 6.31756 4.90237 6.70808 5.29289L18.7081 17.2929C19.0986 17.6834 19.0986 18.3166 18.7081 18.7071C18.3176 19.0976 17.6844 19.0976 17.2939 18.7071L5.29387 6.70711C4.90335 6.31658 4.90335 5.68342 5.29387 5.29289Z"/>
</svg>
