<svg width="16" height="16" viewBox="0 0 16 16" xmlns="http://www.w3.org/2000/svg">
<path fill-rule="evenodd" clip-rule="evenodd" d="M0.728434 1.71909C0.837673 1.48365 1.07363 1.33301 1.33318 1.33301H14.6665C14.9261 1.33301 15.162 1.48365 15.2713 1.71909C15.3805 1.95453 15.3432 2.23197 15.1756 2.43016L9.99985 8.55044V13.9997C9.99985 14.2307 9.88021 14.4453 9.68367 14.5668C9.48712 14.6882 9.2417 14.6993 9.03504 14.596L6.36837 13.2626C6.14251 13.1497 5.99985 12.9189 5.99985 12.6663V8.55044L0.824133 2.43016C0.656534 2.23197 0.619195 1.95453 0.728434 1.71909ZM2.77005 2.66634L7.17556 7.87586C7.27734 7.99621 7.33318 8.14873 7.33318 8.30634V12.2543L8.66651 12.921V8.30634C8.66651 8.14873 8.72236 7.99621 8.82413 7.87586L13.2296 2.66634H2.77005Z"/>
</svg>
