<svg width="16" height="16" viewBox="0 0 16 16" xmlns="http://www.w3.org/2000/svg">
<path fill-rule="evenodd" clip-rule="evenodd" d="M15.1384 0.862273C15.3987 1.12262 15.3987 1.54473 15.1384 1.80508L7.80507 9.13842C7.54472 9.39877 7.12261 9.39877 6.86226 9.13842C6.60191 8.87807 6.60191 8.45596 6.86226 8.19561L14.1956 0.862273C14.4559 0.601923 14.878 0.601923 15.1384 0.862273Z"/>
<path fill-rule="evenodd" clip-rule="evenodd" d="M15.1384 0.862273C15.3195 1.04336 15.3808 1.31219 15.2962 1.55391L10.6296 14.8872C10.5393 15.1452 10.3006 15.322 10.0275 15.3331C9.75438 15.3443 9.50214 15.1876 9.39112 14.9378L6.82859 9.17208L1.0629 6.60955C0.813116 6.49854 0.656407 6.24629 0.66755 5.97317C0.678692 5.70005 0.855428 5.46141 1.11343 5.37111L14.4468 0.704439C14.6885 0.619835 14.9573 0.681181 15.1384 0.862273ZM3.14105 6.07408L7.60442 8.0578C7.75524 8.12484 7.87584 8.24543 7.94287 8.39625L9.92659 12.8596L13.5803 2.42033L3.14105 6.07408Z"/>
</svg>
