<svg width="14" height="10" viewBox="0 0 14 10" xmlns="http://www.w3.org/2000/svg">
<path d="M13.0002 1.66709H4.3335C3.9335 1.66709 3.66683 1.40042 3.66683 1.00042C3.66683 0.600423 3.9335 0.333756 4.3335 0.333756H13.0002C13.4002 0.333756 13.6668 0.600423 13.6668 1.00042C13.6668 1.40042 13.4002 1.66709 13.0002 1.66709Z"/>
<path d="M13.0002 5.66709H4.3335C3.9335 5.66709 3.66683 5.40042 3.66683 5.00042C3.66683 4.60042 3.9335 4.33376 4.3335 4.33376H13.0002C13.4002 4.33376 13.6668 4.60042 13.6668 5.00042C13.6668 5.40042 13.4002 5.66709 13.0002 5.66709Z"/>
<path d="M13.0002 9.66709H4.3335C3.9335 9.66709 3.66683 9.40042 3.66683 9.00042C3.66683 8.60042 3.9335 8.33376 4.3335 8.33376H13.0002C13.4002 8.33376 13.6668 8.60042 13.6668 9.00042C13.6668 9.40042 13.4002 9.66709 13.0002 9.66709Z"/>
<path d="M1.00016 1.66709C0.933496 1.66709 0.933496 1.66709 0.866829 1.66709C0.800163 1.66709 0.800163 1.66709 0.733496 1.60042C0.666829 1.60042 0.666829 1.53376 0.600163 1.53376C0.533496 1.53376 0.533496 1.46709 0.533496 1.46709C0.466829 1.40042 0.400163 1.33376 0.400163 1.26709C0.333496 1.20042 0.333496 1.06709 0.333496 1.00042C0.333496 0.933756 0.333496 0.800423 0.400163 0.733756C0.466829 0.667089 0.466829 0.600423 0.533496 0.533756C0.733496 0.333756 1.00016 0.267089 1.26683 0.400423C1.3335 0.467089 1.40016 0.467089 1.46683 0.533756C1.60016 0.667089 1.66683 0.800423 1.66683 1.00042C1.66683 1.20042 1.60016 1.33376 1.46683 1.46709C1.3335 1.60042 1.20016 1.66709 1.00016 1.66709Z"/>
<path d="M1.00016 5.66709C0.800163 5.66709 0.666829 5.60042 0.533496 5.46709C0.400163 5.33376 0.333496 5.20042 0.333496 5.00042C0.333496 4.93376 0.333496 4.93376 0.333496 4.86709C0.333496 4.80042 0.333496 4.80042 0.400163 4.73376C0.400163 4.66709 0.466829 4.66709 0.466829 4.60042C0.466829 4.53376 0.533496 4.53376 0.533496 4.53376C0.600163 4.46709 0.666829 4.40042 0.733496 4.40042C1.00016 4.26709 1.26683 4.33376 1.46683 4.53376L1.5335 4.60042C1.5335 4.66709 1.60016 4.66709 1.60016 4.73376C1.60016 4.80042 1.60016 4.80042 1.66683 4.86709C1.66683 4.93376 1.66683 4.93376 1.66683 5.00042C1.66683 5.20042 1.60016 5.33376 1.46683 5.46709C1.3335 5.60042 1.20016 5.66709 1.00016 5.66709Z"/>
<path d="M1.00016 9.66709C0.800163 9.66709 0.666829 9.60042 0.533496 9.46709C0.400163 9.33376 0.333496 9.20042 0.333496 9.00042C0.333496 8.93376 0.333496 8.80042 0.400163 8.73376C0.466829 8.66709 0.466829 8.60042 0.533496 8.53376C0.800163 8.26709 1.20016 8.26709 1.46683 8.53376C1.60016 8.66709 1.66683 8.80042 1.66683 9.00042C1.66683 9.20042 1.60016 9.33376 1.46683 9.46709C1.3335 9.60042 1.20016 9.66709 1.00016 9.66709Z"/>
</svg>
