<svg width="42" height="42" viewBox="0 0 42 42" fill="none" xmlns="http://www.w3.org/2000/svg">
<path d="M34.8069 21.1275V34.8069H36.11V38.0635C36.11 39.1405 35.2336 40.0182 34.1553 40.0182H13.3098C12.2328 40.0182 11.355 39.1418 11.355 38.0635V28.2923H19.1714V36.7603C19.1714 37.8373 20.0478 38.7151 21.1262 38.7151H27.6407C28.7177 38.7151 29.5955 37.8386 29.5955 36.7603V34.8055H30.8987V29.0624C31.6553 29.3316 32.2019 30.0492 32.2019 30.8973V34.8055H33.505V30.8973C33.505 29.3249 32.3836 28.0096 30.9 27.7067V21.1275C30.9 20.7061 30.9 19.2926 30.9 19.2926C30.9 19.2926 30.0451 19.2926 29.5968 19.2926V0.933594H0.933594V28.2937H10.0532V38.0648C10.0532 39.8607 11.5139 41.3214 13.3098 41.3214H34.1553C35.9512 41.3214 37.4119 39.8607 37.4119 38.0648V34.8082H38.7151V29.0651C39.4717 29.3343 40.0182 30.0519 40.0182 30.9V34.8082H41.3214V30.9C41.3214 29.3276 40.2 28.0123 38.7164 27.7094V21.1275V19.1727H36.7617H34.8069V21.1275ZM28.2937 36.7616C28.2937 37.1211 28.0015 37.4132 27.6421 37.4132H21.1275C20.7681 37.4132 20.4759 37.1211 20.4759 36.7616V28.2937H26.9905V34.8082H28.2937V36.7616ZM28.2937 21.7791V21.1275C28.2937 20.9794 28.2937 20.4759 28.2937 20.4759C28.2937 20.4759 28.7339 20.4759 28.9453 20.4759C29.1257 20.4759 29.5968 20.4759 29.5968 20.4759C29.5968 20.4759 29.5968 20.9485 29.5968 21.1275V21.7791V23.0823V33.505H28.2937V23.0823V21.7791ZM2.23678 26.9905V2.23678H28.2937V19.2939C27.8494 19.2939 26.9905 19.2939 26.9905 19.2939C26.9905 19.2939 26.9905 20.7048 26.9905 21.1289V26.9918H2.23678V26.9905ZM37.4132 21.1275V21.7791V23.0823V33.505H36.11V23.0823V21.7791V21.1275V20.4759H36.7617H37.4132V21.1275Z" fill="#FFD400"/>
<path d="M15.2643 6.14551C8.39975 6.14551 6.28343 10.8978 6.19727 11.0997L7.39408 11.6154C7.46813 11.4444 9.28963 7.44734 15.2643 7.44734C21.239 7.44734 23.0605 11.4444 23.1346 11.6127L24.3314 11.0997C24.2452 10.8978 22.1289 6.14551 15.2643 6.14551Z" fill="#FFD400"/>
<path d="M24.3842 15.2646V16.5678H26.9905V3.54004H3.54004V16.5678H23.0824V15.2646H18.4566C18.3166 14.5794 17.9558 13.9803 17.459 13.5253L19.7315 9.73688L18.6141 9.06644L16.3403 12.8562C16.001 12.7364 15.6429 12.6583 15.2646 12.6583C13.6922 12.6583 12.3769 13.7797 12.074 15.2633H4.84322V4.84053H25.6887V15.2633H24.3842V15.2646ZM15.2646 13.9614C16.1128 13.9614 16.829 14.508 17.0996 15.2646H13.431C13.7003 14.508 14.4165 13.9614 15.2646 13.9614Z" fill="#FFD400"/>
<path d="M15.2646 17.8711C13.1093 17.8711 11.3564 19.6239 11.3564 21.7793C11.3564 23.9346 13.1093 25.6875 15.2646 25.6875C17.42 25.6875 19.1728 23.9346 19.1728 21.7793C19.1728 19.6239 17.42 17.8711 15.2646 17.8711ZM15.2646 24.3843C13.8282 24.3843 12.6596 23.2157 12.6596 21.7793C12.6596 20.3428 13.8282 19.1743 15.2646 19.1743C16.7011 19.1743 17.8697 20.3428 17.8697 21.7793C17.8697 23.2157 16.7024 24.3843 15.2646 24.3843Z" fill="#FFD400"/>
</svg>
