<svg width="42" height="42" viewBox="0 0 42 42" fill="none" xmlns="http://www.w3.org/2000/svg">
<path d="M15.2651 18.5215H13.9619V19.8247H15.2651V18.5215Z" fill="#FFD400"/>
<path d="M28.291 18.5215H16.5664V19.8247H28.291V18.5215Z" fill="#FFD400"/>
<path d="M25.6865 21.126H13.9619V22.4292H25.6865V21.126Z" fill="#FFD400"/>
<path d="M28.2915 21.126H26.9883V22.4292H28.2915V21.126Z" fill="#FFD400"/>
<path d="M41.1235 23.2008L35.2484 12.0389C34.8365 11.2554 34.1122 10.6671 33.2614 10.4247L30.7654 9.71122C30.8219 9.14713 30.6442 8.56286 30.2121 8.13205C29.4488 7.37007 28.2102 7.37007 27.4482 8.13205L23.7635 11.8168C23.7043 11.876 23.6585 11.9433 23.6073 12.0079H21.6256L19.4083 3.68804C19.1808 2.83452 18.404 2.23678 17.5195 2.23678H11.2352C10.9659 1.48018 10.2497 0.933594 9.40159 0.933594H2.88836C1.81135 0.933594 0.933594 1.81001 0.933594 2.88837V5.49338C0.933594 6.57039 1.81 7.44815 2.88836 7.44815H9.40159C10.2497 7.44815 10.9659 6.90157 11.2352 6.14497H16.0696L17.6676 12.0079H15.2632C14.1862 12.0079 13.3084 12.8844 13.3084 13.9627V15.9175C12.2314 15.9175 11.355 16.7939 11.355 17.8723V28.9452V34.1566V36.1114C11.355 37.1884 12.2314 38.0662 13.3084 38.0662H13.96V39.3693C13.96 40.4464 14.8364 41.3241 15.9148 41.3241H26.3362C27.4132 41.3241 28.291 40.4477 28.291 39.3693V38.0662H28.9426C30.0196 38.0662 30.8973 37.1898 30.8973 36.1114V34.1566V28.9452V17.8723C30.8973 16.7952 30.0209 15.9175 28.9426 15.9175V13.9627C28.9426 13.8725 28.9197 13.7877 28.9076 13.7002L31.5193 14.446C31.6809 14.4918 31.8168 14.5968 31.9016 14.7422L37.8481 24.8513C38.1523 25.3669 38.7124 25.6873 39.3101 25.6873H39.6225C40.5581 25.6873 41.3187 24.9267 41.3187 23.991C41.3187 23.7164 41.2501 23.4431 41.1235 23.2008ZM3.53861 6.14497H2.88702C2.52757 6.14497 2.23544 5.85283 2.23544 5.49338V2.88837C2.23544 2.52891 2.52757 2.23678 2.88702 2.23678H3.53861V6.14497ZM10.0532 5.49338C10.0532 5.85283 9.76104 6.14497 9.40159 6.14497H4.84179V2.23678H9.40159C9.76104 2.23678 10.0532 2.52891 10.0532 2.88837V5.49338ZM24.6843 12.7376L28.369 9.0529C28.4956 8.92635 28.6625 8.86307 28.8308 8.86307C28.9978 8.86307 29.1647 8.92635 29.2913 9.0529C29.5457 9.30734 29.5457 9.71929 29.2913 9.97508L25.6065 13.6598C25.3534 13.9142 24.9401 13.9142 24.6843 13.6598C24.4312 13.4054 24.4312 12.9907 24.6843 12.7376ZM17.0645 4.84179H11.3564V3.53861H17.5209C17.8157 3.53861 18.0742 3.73786 18.1496 4.02192L20.2794 12.0052H19.0193L17.0645 4.84179ZM12.6582 30.2457H13.9614V32.8508H12.6582V30.2457ZM29.5941 36.1074C29.5941 36.4668 29.302 36.7589 28.9426 36.7589H17.8696V38.0621H26.9891V39.3653C26.9891 39.7248 26.697 40.0169 26.3376 40.0169H15.9161C15.5567 40.0169 15.2645 39.7248 15.2645 39.3653V38.0621H16.5677V36.7589H13.3111C12.9517 36.7589 12.6595 36.4668 12.6595 36.1074V34.1526H29.5955V36.1074H29.5941ZM15.2632 32.8508V30.2457H16.5664V32.8508H15.2632ZM17.8696 32.8508V30.2457H19.1727V32.8508H17.8696ZM20.4746 32.8508V30.2457H21.7778V32.8508H20.4746ZM23.0796 32.8508V30.2457H24.3828V32.8508H23.0796ZM29.5941 32.8508H28.291V32.1992H26.9878V32.8508H25.6846V30.2457H26.9878V30.8973H28.291V30.2457H29.5941V32.8508ZM28.9426 17.218C29.302 17.218 29.5941 17.5101 29.5941 17.8696V28.9426H12.6582V17.8696C12.6582 17.5101 12.9503 17.218 13.3098 17.218H25.0344V15.9148H14.613V13.96C14.613 13.6006 14.9051 13.3084 15.2645 13.3084H23.2035C23.229 13.7715 23.4121 14.2266 23.7648 14.5779C24.1458 14.9589 24.6466 15.1488 25.1461 15.1488C25.6469 15.1488 26.1477 14.9589 26.5287 14.5779L27.5182 13.5884C27.5936 13.6961 27.6407 13.824 27.6407 13.9587V15.9134H26.3376V17.2166H28.9426V17.218ZM39.6225 24.3828H39.3101C39.1714 24.3828 39.0422 24.3087 38.9709 24.1889L33.0244 14.0798C32.7686 13.645 32.3607 13.33 31.8761 13.1913L28.7945 12.3108L30.2013 10.904L32.9019 11.6754C33.4121 11.8208 33.847 12.1749 34.0947 12.6434L39.9698 23.8052C39.9994 23.8618 40.0156 23.9264 40.0156 23.9883C40.0156 24.2064 39.8392 24.3828 39.6225 24.3828Z" fill="#FFD400"/>
</svg>
