<svg width="41" height="42" viewBox="0 0 41 42" fill="none" xmlns="http://www.w3.org/2000/svg">
<path d="M1.95477 32.564C0.877762 32.564 0 33.4404 0 34.5188V39.0786C0 40.1556 0.876415 41.0333 1.95477 41.0333H37.1312C38.9271 41.0333 40.3878 39.5726 40.3878 37.7767V32.5654H26.5415L28.2634 23.0958C28.4317 22.1668 29.2408 21.491 30.1859 21.491H40.3878V16.9312C40.3878 15.1353 38.9271 13.6746 37.1312 13.6746H13.6807V7.16006H14.9839V2.60028C14.9839 1.52327 14.1075 0.645508 13.0291 0.645508H6.51456C5.43755 0.645508 4.55979 1.52192 4.55979 2.60028V7.16006H5.86297V13.6746H1.95477C0.877762 13.6746 0 14.551 0 15.6294V19.5376C0 20.6146 0.876415 21.4924 1.95477 21.4924H5.86297V28.2762L7.16615 29.5793V32.5667H1.95477V32.564ZM11.7259 1.94734H13.0291C13.3886 1.94734 13.6807 2.23948 13.6807 2.59893V5.85554H11.7259V1.94734ZM7.16615 11.0669V9.76373H12.3775V11.0669H7.16615ZM12.3775 12.3701V13.6733H7.16615V12.3701H12.3775ZM7.16615 8.4619V7.15872H12.3775V8.4619H7.16615ZM9.12092 1.94734H10.4241V5.85554H9.12092V1.94734ZM5.86297 2.59893C5.86297 2.23948 6.15511 1.94734 6.51456 1.94734H7.81774V5.85554H5.86297V2.59893ZM1.95477 20.1865C1.59532 20.1865 1.30318 19.8943 1.30318 19.5349V18.8833H2.60636V17.5801H1.30318V15.6254C1.30318 15.2659 1.59532 14.9738 1.95477 14.9738H37.1312C38.2082 14.9738 39.086 15.8502 39.086 16.9285V17.5801H3.90954V18.8833H39.086V20.1865H30.1859C28.6107 20.1865 27.2631 21.312 26.9818 22.8615L26.2319 26.9838C25.6611 26.0373 24.6339 25.3979 23.4519 25.3979C22.2698 25.3979 21.2427 26.0373 20.6718 26.9838L19.922 22.8615C19.6406 21.312 18.293 20.1865 16.7179 20.1865H1.95477ZM23.4519 31.9124C24.2165 31.9124 24.9099 31.6364 25.4672 31.1949L25.1158 33.1308C24.9704 33.9345 24.2704 34.5188 23.4532 34.5188C22.636 34.5188 21.936 33.9345 21.7906 33.1308L21.4392 31.1949C21.9925 31.6364 22.6872 31.9124 23.4519 31.9124ZM21.4971 28.6558C21.4971 27.5788 22.3735 26.701 23.4519 26.701C24.5289 26.701 25.4066 27.5775 25.4066 28.6558C25.4066 29.7328 24.5302 30.6106 23.4519 30.6106C22.3735 30.6092 21.4971 29.7328 21.4971 28.6558ZM7.16615 27.7336V26.701H12.3775V27.7336L11.0743 29.0368V32.564H8.46933V29.0368L7.16615 27.7336ZM12.3775 24.096V25.3992H7.16615V24.096H12.3775ZM7.16615 22.7928V21.4897H12.3775V22.7928H7.16615ZM12.3775 29.5767L13.6807 28.2735V21.4897H16.7179C17.6629 21.4897 18.472 22.1641 18.6403 23.0944L20.3609 32.564H12.3775V29.5767ZM12.3775 33.8672H20.6449C21.0717 35.025 22.181 35.822 23.4519 35.822C24.7227 35.822 25.8307 35.025 26.2588 33.8672H39.086V37.7754C39.086 38.8524 38.2096 39.7302 37.1312 39.7302H1.95477C1.59532 39.7302 1.30318 39.438 1.30318 39.0786V34.5188C1.30318 34.1593 1.59532 33.8672 1.95477 33.8672H7.16615H12.3775Z" fill="#FFD400"/>
</svg>
