<svg width="36" height="42" viewBox="0 0 36 42" fill="none" xmlns="http://www.w3.org/2000/svg">
<path d="M32.8434 32.2705V27.6448C32.8434 26.7966 32.2968 26.0804 31.5403 25.8098V22.98L32.2417 22.7107C32.9915 22.4226 33.495 21.6902 33.495 20.8865V15.7034C33.495 14.7435 32.7155 13.9641 31.7557 13.9641C31.5281 13.9641 31.306 14.0071 31.0933 14.0946L21.831 17.9086C20.6059 18.4148 19.8143 19.5968 19.8143 20.9215V26.9932V32.2045H18.5111V16.5691H21.1175V11.3577H18.4452C18.2311 10.3103 17.5136 9.44735 16.5564 9.02866V6.79791C16.5564 5.94977 16.0098 5.23355 15.2532 4.96295V2.88836C15.2532 1.81135 14.3768 0.933594 13.2984 0.933594C12.2201 0.933594 11.3436 1.81 11.3436 2.88836V4.84312H10.0405V2.88836C10.0405 1.81135 9.16404 0.933594 8.08569 0.933594C7.00733 0.933594 6.13092 1.81 6.13092 2.88836V4.96295C5.37432 5.2322 4.82773 5.94977 4.82773 6.79791V9.02866C3.67937 9.53351 2.87296 10.6778 2.87296 12.0093V32.2705C1.38804 32.5734 0.266602 33.8901 0.266602 35.4625V41.3255H35.4458V35.4625C35.4484 33.8901 34.3284 32.5734 32.8434 32.2705ZM18.5111 12.6609H19.8143V15.2672H18.5111V12.6609ZM21.1175 20.9202C21.1175 20.1259 21.5927 19.4164 22.3278 19.1135L31.5901 15.2996C31.8714 15.1851 32.1932 15.4059 32.1932 15.7034V20.8865C32.1932 21.1544 32.0249 21.3981 31.7745 21.495L24.9759 24.1095C24.5599 24.2697 24.2247 24.5685 24.0039 24.9388C23.5637 24.5982 23.0184 24.3868 22.4207 24.3868C21.9441 24.3868 21.5025 24.5255 21.1175 24.749V20.9202ZM27.6321 27.6448C27.6321 27.2853 27.9242 26.9932 28.2836 26.9932H30.89C31.2495 26.9932 31.5416 27.2853 31.5416 27.6448V32.2045H27.6334V27.6448H27.6321ZM26.3289 27.6461V32.2059H25.0257V27.6461V26.9945V25.935C25.0257 25.6671 25.194 25.4234 25.4444 25.3265L27.6321 24.4851V25.8112C26.8755 26.0804 26.3289 26.798 26.3289 27.6461ZM28.9339 25.69V23.9829L30.2371 23.4821V25.69H28.9339ZM21.1175 26.9932C21.1175 26.2743 21.7018 25.69 22.4207 25.69C23.1396 25.69 23.7239 26.2743 23.7239 26.9932V27.6448V32.2045H21.1175V26.9932ZM12.6482 2.88972C12.6482 2.53026 12.9403 2.23811 13.2998 2.23811C13.6592 2.23811 13.9513 2.53026 13.9513 2.88972V4.84448H12.6482V2.88972ZM7.43544 2.88972C7.43544 2.53026 7.72758 2.23811 8.08703 2.23811C8.44648 2.23811 8.73862 2.53026 8.73862 2.88972V4.84448H7.43544V2.88972ZM6.13361 6.79791C6.13361 6.43846 6.42575 6.14631 6.7852 6.14631H14.6029C14.9624 6.14631 15.2545 6.43846 15.2545 6.79791V8.75268H6.13361V6.79791ZM4.17884 12.0093C4.17884 10.9323 5.05525 10.0545 6.13361 10.0545H15.2545C16.3315 10.0545 17.2093 10.9309 17.2093 12.0093V16.5691V32.2045H4.18018V12.0093H4.17884ZM34.1466 40.0223H1.57248V35.4625C1.57248 34.3855 2.44889 33.5077 3.52725 33.5077H32.1918C33.2689 33.5077 34.1466 34.3841 34.1466 35.4625V40.0223Z" fill="#FFD400"/>
<path d="M5.48242 26.9935H15.9065V15.2676H5.48242V26.9935ZM6.7856 16.5708H14.6033V25.6917H6.7856V16.5708Z" fill="#FFD400"/>
<path d="M13.2983 17.8721H8.08691V19.1753H13.2983V17.8721Z" fill="#FFD400"/>
<path d="M13.2983 20.4785H8.08691V21.7817H13.2983V20.4785Z" fill="#FFD400"/>
<path d="M13.2983 23.085H8.08691V24.3881H13.2983V23.085Z" fill="#FFD400"/>
</svg>
