<svg width="40" height="42" viewBox="0 0 40 42" fill="none" xmlns="http://www.w3.org/2000/svg">
<path d="M26.9231 11.1827V12.6582H17.8789C17.8493 12.6286 17.8331 12.6124 17.8035 12.5828V10.0532H19.7583H25.7936C26.4169 10.0518 26.9231 10.558 26.9231 11.1827ZM11.289 13.9614H12.6823C12.9893 15.5567 14.1242 16.8962 15.7101 17.4239L19.9643 18.8416C20.2295 18.9304 20.4085 19.1795 20.4085 19.4595V23.9035C19.2292 24.7288 18.4538 26.0952 18.4538 27.6394C18.4538 28.9143 18.9815 30.068 19.8283 30.896H11.2876V13.9614H11.289ZM11.289 12.6582V10.0532H12.5921V12.6582H11.289ZM17.8358 14.2239L22.09 15.6415C23.4228 16.0858 24.3167 17.327 24.3167 18.7312V23.2721C23.9034 23.1483 23.4672 23.0796 23.0136 23.0796C22.5612 23.0796 22.1237 23.1483 21.7104 23.2721V19.4595C21.7104 18.6167 21.1732 17.8723 20.3749 17.6057L16.1207 16.1881C14.7879 15.7438 13.894 14.5012 13.894 13.0971V10.0518H16.499V12.3701C16.5003 13.2128 17.0362 13.9587 17.8358 14.2239ZM19.757 27.6407C19.757 25.8448 21.2176 24.3841 23.0136 24.3841C24.8095 24.3841 26.2702 25.8448 26.2702 27.6407C26.2702 29.4366 24.8095 30.8973 23.0136 30.8973C21.2176 30.8973 19.757 29.4366 19.757 27.6407ZM26.9231 29.9765V30.8973H26.2002C26.4788 30.624 26.7212 30.3144 26.9231 29.9765ZM25.6199 23.9035V18.7325C25.6199 16.767 24.3679 15.0276 22.502 14.407L21.1665 13.9614H26.9231V25.305C26.5906 24.7503 26.1463 24.2724 25.6199 23.9035ZM24.9683 3.2357V3.84018C24.9683 4.39214 24.52 4.84044 23.9681 4.84044H19.757H19.7044C19.559 3.82671 19.0811 2.91933 18.3811 2.23543H23.9667C24.52 2.23543 24.9683 2.68373 24.9683 3.2357ZM15.1972 2.23543C16.9931 2.23543 18.4538 3.69612 18.4538 5.49204C18.4538 7.28795 16.9931 8.74864 15.1972 8.74864C13.4013 8.74864 11.9406 7.28795 11.9406 5.49204C11.9406 3.69612 13.4013 2.23543 15.1972 2.23543ZM2.16939 2.23543H12.0119C11.3118 2.92068 10.8353 3.82671 10.6885 4.84044H2.16805V2.23543H2.16939ZM2.16939 6.14363H10.6899C10.8353 7.15736 11.3132 8.06474 12.0133 8.74864H2.16939H0.866211V12.6568V13.96V30.8973V32.2005V39.3667C0.866211 40.4464 1.74129 41.3214 2.82099 41.3214H9.98579H10.6374H28.2263C29.3033 41.3214 30.181 40.445 30.181 39.3667C30.181 38.2883 29.3046 37.4119 28.2263 37.4119H32.1345V36.7603H37.3458C38.4229 36.7603 39.3006 35.8839 39.3006 34.8055C39.3006 33.7272 38.4242 32.8508 37.3458 32.8508H32.1345V32.1992H28.2263V31.5476V13.9614V13.3098V10.9632C28.2263 9.74084 27.2354 8.74999 26.013 8.74999H22.0012H19.7583H18.3838C19.0838 8.06474 19.5604 7.15871 19.7071 6.14497H19.7583H22.0012H24.0502C25.2766 6.14497 26.2715 5.15008 26.2715 3.92364V3.15493C26.2715 1.92848 25.2766 0.933594 24.0502 0.933594H0.866211V6.14497H2.16939V6.14363ZM2.16939 12.6582V10.0532H9.98579V12.6582H7.38077H2.16939ZM2.16939 30.8973V13.9614H6.07759H7.38077H9.98579V30.8987H2.16939V30.8973ZM8.15083 40.0169H2.81964C2.46019 40.0169 2.16805 39.7248 2.16805 39.3653V32.1992H7.37943H9.98579V34.8042H11.289V32.1992H26.9231V37.4105H11.289V36.1074H9.98579V37.4105C8.90878 37.4105 8.03101 38.287 8.03101 39.3653C8.03101 39.5955 8.07814 39.8123 8.15083 40.0169ZM28.8765 39.3653C28.8765 39.7248 28.5844 40.0169 28.2249 40.0169H10.6374H9.98579C9.62633 40.0169 9.33419 39.7248 9.33419 39.3653C9.33419 39.0059 9.62633 38.7137 9.98579 38.7137H28.2249C28.5844 38.7151 28.8765 39.0072 28.8765 39.3653ZM30.8313 36.1087H28.2263V33.5037H30.8313V36.1087ZM37.3458 35.4571H32.1345V34.1539H37.3458C37.7053 34.1539 37.9974 34.4461 37.9974 34.8055C37.9961 35.165 37.704 35.4571 37.3458 35.4571Z" fill="#FFD400"/>
</svg>
