<svg width="42" height="42" viewBox="0 0 42 42" fill="none" xmlns="http://www.w3.org/2000/svg">
<path d="M40.7621 35.381L37.0046 31.6223H35.2209L27.045 23.4464C27.0464 23.4155 27.0544 23.3859 27.0544 23.3549C27.0544 22.8447 26.8552 22.364 26.4944 22.0033L25.6166 21.1268L26.493 20.2504C26.8888 19.8546 27.0679 19.3269 27.0437 18.8072L28.4545 17.3963L27.5337 16.4755L26.4782 17.531L24.7241 15.7768L32.2752 8.22562L34.0294 9.9798L28.5542 15.455L29.475 16.3759L35.2195 10.6314H37.0033L40.7621 6.87397C41.5079 6.12814 41.5079 4.91516 40.7621 4.16933L38.087 1.49431C37.3399 0.748482 36.1269 0.748482 35.3824 1.49431L31.6236 5.25173V7.03552L23.4465 15.2127C22.9268 15.1885 22.3991 15.3675 22.0033 15.7633L21.1282 16.6397L20.2518 15.7633C19.856 15.3675 19.3282 15.1885 18.8099 15.2127L10.6327 7.03552V5.25173L6.87398 1.49297C6.12681 0.747137 4.91382 0.747137 4.16934 1.49297L1.49297 4.16933C0.747137 4.91516 0.747137 6.12814 1.49297 6.87397L5.25174 10.6314H7.03553L15.2127 18.8072C15.1885 19.3269 15.3675 19.8546 15.7633 20.2504L16.6411 21.1268L15.7647 22.0046C15.4026 22.3654 15.2047 22.846 15.2047 23.3562C15.2047 23.3872 15.2114 23.4168 15.2141 23.4478L7.03822 31.6236H5.25443L1.49568 35.381C0.749848 36.1269 0.749848 37.3412 1.49568 38.0857L4.1707 40.7607C4.53284 41.1229 5.01344 41.3221 5.52367 41.3221C6.03391 41.3221 6.51453 41.1228 6.87667 40.7621L10.6354 37.0046V35.2208L18.8113 27.045C18.8409 27.0463 18.8718 27.0531 18.9015 27.0531C19.3915 27.0531 19.8815 26.8673 20.2545 26.4944L21.1282 25.6166L22.0046 26.493C22.3775 26.8659 22.8676 27.0517 23.3576 27.0517C23.3872 27.0517 23.4182 27.045 23.4478 27.0436L31.625 35.2195V37.0033L35.3824 40.7607C35.7445 41.1229 36.2238 41.3208 36.7354 41.3208C37.247 41.3208 37.7263 41.1215 38.0884 40.7607L40.7634 38.0857C41.1256 37.7235 41.3235 37.2443 41.3235 36.7327C41.3221 36.2238 41.1229 35.7432 40.7621 35.381ZM32.9255 5.79158L36.3019 2.41515C36.5402 2.17686 36.9266 2.17686 37.1649 2.41515L39.8399 5.09017C40.0782 5.32846 40.0782 5.71483 39.8399 5.95312L36.4635 9.32955H35.2195L32.9255 7.03552V5.79158ZM5.79159 9.32955L2.41517 5.95312C2.17688 5.71483 2.17688 5.32846 2.41517 5.09017L5.09019 2.41515C5.32848 2.17686 5.71484 2.17686 5.95313 2.41515L9.32955 5.79158V7.03552L7.03553 9.32955H5.79159ZM8.22698 9.98114L9.98115 8.22696L17.5323 15.7781L15.7782 17.5323L8.22698 9.98114ZM9.32955 36.4648L5.95313 39.8399C5.72292 40.0701 5.32175 40.0701 5.09019 39.8399L2.41517 37.1648C2.17688 36.9266 2.17688 36.5402 2.41517 36.3019L5.79159 32.9255H7.03553L9.32955 35.2195V36.4648ZM9.98115 34.0294L8.22698 32.2752L15.7782 24.724L17.5323 26.4782L9.98115 34.0294ZM22.9268 25.5708L21.143 23.7884L21.1282 23.8032L21.1134 23.7884L19.3296 25.5722C19.0913 25.8105 18.7049 25.8105 18.4666 25.5722L16.6828 23.7884C16.5671 23.6726 16.5038 23.5205 16.5038 23.3576C16.5038 23.196 16.5671 23.0426 16.6828 22.9268L18.4666 21.143L18.4518 21.1282L18.4666 21.1134L16.6828 19.3296C16.4445 19.0913 16.4445 18.7049 16.6828 18.4666L18.4666 16.6828C18.7049 16.4445 19.0913 16.4445 19.3296 16.6828L21.1134 18.4666L21.1282 18.4518L21.143 18.4666L22.9268 16.6828C23.1651 16.4445 23.5515 16.4445 23.7898 16.6828L25.5735 18.4666C25.8118 18.7049 25.8118 19.0913 25.5735 19.3296L23.7898 21.1134L23.8046 21.1282L23.7898 21.143L25.5735 22.9268C25.6893 23.0426 25.7526 23.1947 25.7526 23.3576C25.7526 23.5205 25.6893 23.674 25.5735 23.7884L23.7898 25.5722C23.5515 25.8091 23.1637 25.8091 22.9268 25.5708ZM24.7241 26.4782L26.4782 24.724L34.0294 32.2752L32.2752 34.0294L24.7241 26.4782ZM39.8412 37.1648L37.1662 39.8399C36.936 40.0701 36.5348 40.0701 36.3032 39.8399L32.9268 36.4634V35.2195L35.2209 32.9255H36.4648L39.8412 36.3019C40.0782 36.5402 40.0782 36.9279 39.8412 37.1648Z" fill="#FFD400"/>
</svg>
