<svg width="38" height="42" viewBox="0 0 38 42" fill="none" xmlns="http://www.w3.org/2000/svg">
<path d="M35.9916 22.2678H34.8769L33.8107 21.7051C33.7191 21.6579 33.6195 21.6324 33.5172 21.6324H30.9257L28.9924 21.5112V18.0769L35.2081 12.0712L35.2202 12.0833C35.3427 12.2058 35.5043 12.2664 35.6645 12.2664C35.8247 12.2664 35.9862 12.2045 36.1087 12.0833L37.008 11.184C37.4994 10.6913 37.4994 9.88892 37.008 9.39618L28.9184 1.30381C28.6787 1.06552 28.3624 0.933594 28.0245 0.933594C28.0245 0.933594 28.0245 0.933594 28.0231 0.933594C27.6852 0.933594 27.3688 1.06552 27.1319 1.30381L26.2326 2.20311C26.1141 2.32158 26.0481 2.48044 26.0481 2.64738C26.0481 2.81431 26.1141 2.97452 26.2312 3.09165L26.2366 3.09703L17.2423 12.0914C16.0064 13.3273 16.0064 15.3399 17.2423 16.5771L20.3831 19.718L20.3629 19.7503C20.2781 19.7328 20.1906 19.722 20.1004 19.722H18.8295C18.1321 19.722 17.5653 20.2888 17.5653 20.9862V21.0669L13.0298 21.6337C12.7161 21.6727 12.4805 21.9407 12.4805 22.257V22.4401L11.0037 22.9329C10.7479 23.019 10.5742 23.2586 10.5742 23.5292V24.8001C10.5742 25.0707 10.7465 25.3104 11.0037 25.3965L12.4805 25.8892V26.071C12.4805 26.3874 12.7161 26.6553 13.0298 26.6943L17.5653 27.2611V27.3418C17.5653 28.0392 18.1321 28.606 18.8295 28.606H20.1004C20.7977 28.606 21.3645 28.0392 21.3645 27.3418V27.2961L22.6502 27.2166V32.0403L20.4544 33.1375L21.0172 34.2616L23.5602 32.9908C23.773 32.8844 23.9076 32.6663 23.9076 32.4294V27.1399L26.4655 26.981V35.064L22.5559 35.6227C22.2463 35.6671 22.0161 35.931 22.0161 36.2447V37.5156C22.0161 38.2129 22.5829 38.7797 23.2802 38.7797H26.4655V40.0573C26.4655 40.7547 27.0323 41.3214 27.7296 41.3214H29.9981C30.6066 41.3214 31.1289 40.8866 31.2407 40.2888L32.797 31.9097C32.8037 31.872 32.8077 31.833 32.8077 31.7953V28.6168V26.7024H33.3678C33.4607 26.7024 33.5509 26.6822 33.6343 26.6431L34.8621 26.067H35.993C36.6903 26.067 37.2571 25.5002 37.2571 24.8028V23.5319C37.2544 22.8346 36.689 22.2678 35.9916 22.2678ZM12.4792 24.5672L11.8289 24.3505V23.9843L12.4792 23.7675V24.5672ZM17.5653 25.9996L13.7366 25.5204V25.4396V22.8965V22.8157L17.5653 22.3364V25.9996ZM20.1071 21.6256V26.7105V27.3459C20.1071 27.3499 20.1044 27.354 20.099 27.354L18.8201 27.3459L18.8281 20.9821L20.1071 20.9902V21.6256ZM23.2708 37.5169V36.7899L26.4641 36.3335V37.5223L23.2708 37.5169ZM28.0285 2.19639L36.1182 10.2968L35.6631 10.7519L35.6591 10.7478C35.6591 10.7478 35.6591 10.7465 35.6578 10.7465L27.5667 2.65545L27.564 2.65276L28.0285 2.19639ZM18.1294 15.6913C17.3823 14.9455 17.3823 13.7298 18.1294 12.984L27.1238 3.98826L34.3182 11.1827L28.672 16.6391C28.5805 16.5852 28.4781 16.5475 28.3637 16.5475H23.3637C22.7013 16.5475 22.0767 16.9016 21.7347 17.4697L21.0495 18.6113L18.1294 15.6913ZM27.735 17.8036V21.4331L25.3454 21.2837L21.3631 21.0346V20.9888V20.5271L22.809 18.1159C22.9248 17.9221 23.1375 17.8036 23.361 17.8036H27.735ZM22.6502 25.9619L21.3645 26.0427V22.2947L24.7073 22.5034L30.2781 22.8521V25.4854L23.9062 25.8825L22.6502 25.9619ZM27.7202 26.903L30.9257 26.7024H31.549V27.9894H31.5422C30.4948 27.9894 29.6427 28.8416 29.6427 29.889V30.5244C29.6427 31.5314 30.4329 32.3499 31.4238 32.4119L29.9967 40.0667L27.7202 40.06V26.903ZM31.5422 31.1666C31.1882 31.1666 30.8987 30.8785 30.8987 30.5244V29.889C30.8987 29.5349 31.1868 29.2455 31.5422 29.2455L31.5503 31.1666H31.5422ZM34.092 25.0398L33.2251 25.4463H31.5342V22.8884H33.361L34.092 23.2748V25.0398ZM35.9984 24.8028L35.3481 24.8109V23.5279L35.9984 23.5319V24.8028Z" fill="#FFD400"/>
<path d="M25.8204 9.54785C24.4176 9.54785 23.2773 10.6881 23.2773 12.0909C23.2773 13.4937 24.4176 14.634 25.8204 14.634C27.2232 14.634 28.3635 13.4937 28.3635 12.0909C28.3635 10.6881 27.2232 9.54785 25.8204 9.54785ZM25.8204 13.3605C25.119 13.3605 24.5495 12.7897 24.5495 12.0896C24.5495 11.3882 25.1204 10.8187 25.8204 10.8187C26.5218 10.8187 27.0913 11.3895 27.0913 12.0896C27.0913 12.791 26.5218 13.3605 25.8204 13.3605Z" fill="#FFD400"/>
<path d="M8.30145 24.8041C8.65239 24.8041 8.93688 24.5196 8.93688 24.1686C8.93688 23.8177 8.65239 23.5332 8.30145 23.5332C7.95051 23.5332 7.66602 23.8177 7.66602 24.1686C7.66602 24.5196 7.95051 24.8041 8.30145 24.8041Z" fill="#FFD400"/>
<path d="M4.63446 24.8041C4.9854 24.8041 5.26989 24.5196 5.26989 24.1686C5.26989 23.8177 4.9854 23.5332 4.63446 23.5332C4.28352 23.5332 3.99902 23.8177 3.99902 24.1686C3.99902 24.5196 4.28352 24.8041 4.63446 24.8041Z" fill="#FFD400"/>
<path d="M0.968443 24.8041C1.31938 24.8041 1.60388 24.5196 1.60388 24.1686C1.60388 23.8177 1.31938 23.5332 0.968443 23.5332C0.617502 23.5332 0.333008 23.8177 0.333008 24.1686C0.333008 24.5196 0.617502 24.8041 0.968443 24.8041Z" fill="#FFD400"/>
<path d="M9.02704 22.1195C9.37798 22.1195 9.66247 21.835 9.66247 21.4841C9.66247 21.1331 9.37798 20.8486 9.02704 20.8486C8.6761 20.8486 8.3916 21.1331 8.3916 21.4841C8.3916 21.835 8.6761 22.1195 9.02704 22.1195Z" fill="#FFD400"/>
<path d="M5.80828 20.3646C6.15922 20.3646 6.44372 20.0801 6.44372 19.7292C6.44372 19.3782 6.15922 19.0938 5.80828 19.0938C5.45734 19.0938 5.17285 19.3782 5.17285 19.7292C5.17285 20.0801 5.45734 20.3646 5.80828 20.3646Z" fill="#FFD400"/>
<path d="M2.58954 18.6088C2.94048 18.6088 3.22497 18.3243 3.22497 17.9733C3.22497 17.6224 2.94048 17.3379 2.58954 17.3379C2.2386 17.3379 1.9541 17.6224 1.9541 17.9733C1.9541 18.3243 2.2386 18.6088 2.58954 18.6088Z" fill="#FFD400"/>
<path d="M9.02704 27.4877C9.37798 27.4877 9.66247 27.2032 9.66247 26.8522C9.66247 26.5013 9.37798 26.2168 9.02704 26.2168C8.6761 26.2168 8.3916 26.5013 8.3916 26.8522C8.3916 27.2032 8.6761 27.4877 9.02704 27.4877Z" fill="#FFD400"/>
<path d="M5.80828 29.2435C6.15922 29.2435 6.44372 28.959 6.44372 28.6081C6.44372 28.2572 6.15922 27.9727 5.80828 27.9727C5.45734 27.9727 5.17285 28.2572 5.17285 28.6081C5.17285 28.959 5.45734 29.2435 5.80828 29.2435Z" fill="#FFD400"/>
<path d="M2.58954 31.0004C2.94048 31.0004 3.22497 30.7159 3.22497 30.3649C3.22497 30.014 2.94048 29.7295 2.58954 29.7295C2.2386 29.7295 1.9541 30.014 1.9541 30.3649C1.9541 30.7159 2.2386 31.0004 2.58954 31.0004Z" fill="#FFD400"/>
</svg>
