<svg width="42" height="42" viewBox="0 0 42 42" fill="none" xmlns="http://www.w3.org/2000/svg">
<path d="M40.0182 4.84179V0.933594H28.2923V4.84179H26.9891V13.3098C26.9891 14.3868 27.8655 15.2645 28.9439 15.2645H31.5489V25.0384C30.5459 24.6184 29.4461 24.3855 28.2923 24.3855H12.0079C10.8852 24.3855 9.77718 24.6089 8.75133 25.0357V19.7705C10.3063 18.8671 11.3563 17.1883 11.3563 15.2645V3.53995H10.0532V0.933594H2.23678V3.53861H0.933594V15.2645C0.933594 17.1883 1.98367 18.8685 3.53861 19.7705V32.8521C3.53861 37.5209 7.33775 41.3201 12.0066 41.3201H28.2923C32.9611 41.3201 36.7603 37.5209 36.7603 32.8521V15.2645H39.3653C40.4423 15.2645 41.3201 14.3881 41.3201 13.3098V4.84179H40.0182ZM3.53861 2.23677H8.74998V3.53995H3.53861V2.23677ZM2.23678 15.2645V4.84179H10.0532V8.74998H4.84179V7.4468H3.53861V11.355H4.84179V10.0518H10.0532V15.2632C10.0532 17.4186 8.30034 19.1714 6.14497 19.1714C3.98961 19.1727 2.23678 17.4199 2.23678 15.2645ZM28.2937 40.0182H12.0079C8.05666 40.0182 4.84179 36.8034 4.84179 32.8521V20.3036C5.25913 20.4113 5.69398 20.4746 6.14497 20.4746C6.59597 20.4746 7.03081 20.4113 7.44815 20.3036V32.8521C7.44815 35.3656 9.49312 37.4119 12.0079 37.4119H28.2937C30.8085 37.4119 32.8534 35.3656 32.8534 32.8521C32.8534 30.3386 30.8085 28.2923 28.2937 28.2923H15.2659V29.5955H28.2937C30.0896 29.5955 31.5503 31.0562 31.5503 32.8521C31.5503 34.648 30.0896 36.1087 28.2937 36.1087H12.0079C10.212 36.1087 8.75133 34.648 8.75133 32.8521C8.75133 31.0562 10.212 29.5955 12.0079 29.5955H13.9627V28.2923H12.0079C10.733 28.2923 9.57928 28.82 8.75133 29.6668V26.4856C9.75564 25.9714 10.8703 25.6873 12.0079 25.6873H28.2937C32.2449 25.6873 35.4598 28.9022 35.4598 32.8534C35.4598 36.8047 32.2436 40.0182 28.2937 40.0182ZM35.4585 28.361C34.7934 27.3042 33.9035 26.4035 32.8534 25.729V15.2659H35.4585V28.361ZM40.0182 13.3111C40.0182 13.6706 39.7261 13.9627 39.3666 13.9627H28.9439C28.5844 13.9627 28.2923 13.6706 28.2923 13.3111V6.14497H36.1087V4.84179H29.5941V2.23677H30.8973V3.53995H32.2005V2.23677H33.5037V3.53995H34.8069V2.23677H36.11V3.53995H37.4132V2.23677H38.7164V4.84179H37.4132V6.14497H40.0182V13.3111Z" fill="#FFD400"/>
</svg>
