<svg width="42" height="42" viewBox="0 0 42 42" fill="none" xmlns="http://www.w3.org/2000/svg">
<path d="M21.1275 0.933594C9.99258 0.933594 0.933594 9.99259 0.933594 21.1275C0.933594 32.2624 9.99258 41.3214 21.1275 41.3214C32.2624 41.3214 41.3214 32.2624 41.3214 21.1275C41.3214 9.99259 32.2624 0.933594 21.1275 0.933594ZM21.1275 40.0196C10.7101 40.0196 2.23677 31.5449 2.23677 21.1289C2.23677 10.7128 10.7115 2.23812 21.1275 2.23812C31.5435 2.23812 40.0182 10.7128 40.0182 21.1289C40.0182 31.5449 31.5449 40.0196 21.1275 40.0196Z" fill="#FFD400"/>
<path d="M21.1275 4.84277C12.148 4.84277 4.8418 12.1489 4.8418 21.1285C4.8418 30.1081 12.148 37.4142 21.1275 37.4142C25.1003 37.4142 28.9251 35.9683 31.899 33.3431L31.0373 32.3657C28.3004 34.7809 24.7813 36.111 21.1275 36.111C12.8669 36.111 6.14498 29.3905 6.14498 21.1285C6.14498 12.8665 12.8669 6.14596 21.1275 6.14596C29.3882 6.14596 36.1101 12.8665 36.1101 21.1285C36.1101 24.8213 34.7557 28.3687 32.2948 31.1164L33.2654 31.9848C35.9391 28.9961 37.4119 25.1404 37.4119 21.1272C37.4132 12.1476 30.1071 4.84277 21.1275 4.84277Z" fill="#FFD400"/>
<path d="M31.5507 21.1272H32.8539C32.8539 19.2263 32.3895 17.4344 31.5817 15.8445L33.3009 14.8523L32.6493 13.7241L30.9328 14.715C30.047 13.3647 28.8919 12.2096 27.5416 11.3238L28.5324 9.60728L27.4042 8.95569L26.4121 10.6749C25.0066 9.96135 23.4395 9.52785 21.7809 9.43631V7.44922H20.4777V9.43765C19.1072 9.51304 17.7798 9.81595 16.5211 10.3545L15.3808 8.65144L13.1958 9.91288L14.1005 11.7492C12.9952 12.5785 12.0596 13.5855 11.3205 14.715L9.60667 13.7255L8.95508 14.8537L10.6675 15.8432C9.85034 17.46 9.40338 19.2654 9.40338 21.1299H10.7066C10.7066 17.9231 12.1834 14.9089 14.6861 12.9379L18.1218 19.9183C18.0733 20.0395 18.0181 20.1593 17.9831 20.2872C17.7583 21.1272 17.8741 22.005 18.3089 22.7589C18.7437 23.5115 19.4465 24.0513 20.2866 24.2761L22.7448 29.2236L27.3302 26.5769L24.2742 21.974C24.499 21.134 24.3832 20.2562 23.9484 19.5023C23.5135 18.7497 22.8108 18.2099 21.9707 17.9851C21.8415 17.9501 21.7109 17.9393 21.5817 17.9204L17.2602 11.4638C18.4893 10.971 19.7844 10.7072 21.1266 10.7072C26.8752 10.7045 31.5507 15.3814 31.5507 21.1272ZM23.5701 23.2651L25.4777 26.138L23.2941 27.3995L21.7621 24.3165C22.1067 24.2479 22.4433 24.1294 22.7569 23.9477C23.0706 23.7673 23.3372 23.5303 23.5701 23.2651ZM21.1253 19.1738C21.8011 19.1738 22.4594 19.5238 22.8216 20.1499C23.0827 20.6022 23.1514 21.1286 23.0168 21.6321C22.8808 22.1356 22.5577 22.5583 22.1067 22.8181C21.1737 23.358 19.9756 23.0362 19.4371 22.1033C19.1759 21.6509 19.1072 21.1245 19.2419 20.621C19.3778 20.1175 19.7009 19.6948 20.1519 19.435C20.4575 19.2586 20.7941 19.1738 21.1253 19.1738ZM20.0954 18.0389C19.8908 18.1076 19.6915 18.1964 19.5003 18.3068C19.3092 18.4172 19.1315 18.5464 18.9699 18.6892L14.9042 10.4298L14.9769 10.3881L20.0954 18.0389Z" fill="#FFD400"/>
</svg>
