<svg width="42" height="42" viewBox="0 0 42 42" fill="none" xmlns="http://www.w3.org/2000/svg">
<path d="M35.1529 21.1841C35.2929 20.0882 34.9253 18.9748 34.1297 18.1792C33.2291 17.2772 31.9326 16.9299 30.7183 17.2287L27.4697 10.7317H27.7188V0.933594H22.4926V4.19962H19.8795V0.933594H14.6533V10.7317H14.9024L11.6768 17.183C10.5392 16.9891 9.36119 17.3405 8.52381 18.1792C7.7901 18.9129 7.42392 19.9145 7.47911 20.9256L6.43037 19.8768H2.89374C1.81269 19.8768 0.933594 20.7559 0.933594 21.837V25.756C0.933594 26.837 1.81269 27.7161 2.89374 27.7161H6.43037L7.73624 26.4102H8.97211L11.5206 35.1488L9.42445 37.2449V41.4345H32.9409V37.2449L31.0629 35.3669L33.676 26.4102H41.4318V21.1841H35.1529ZM29.5134 17.7403C28.7877 18.1954 28.2438 18.8914 27.9854 19.7287L27.673 20.7438L22.8763 10.733H26.0077L29.5134 17.7403ZM15.9363 21.1841L20.9444 10.733H21.4291L26.4372 21.1841H15.9363ZM16.6135 22.4899V25.103H16.3227L15.519 22.4899H16.6135ZM24.4528 22.4899V25.103H23.1469V22.4899H24.4528ZM21.8397 22.4899V25.103H20.5338V22.4899H21.8397ZM19.2266 22.4899V25.103H17.9207V22.4899H19.2266ZM25.9283 26.4089L23.3152 34.9011H19.337L16.7239 26.4089H25.9283ZM25.7586 25.103V22.4899H27.1345L26.3308 25.103H25.7586ZM15.9606 2.23947H18.5736V5.5055H23.7998V2.23947H26.4129V9.42446H15.9619V2.23947H15.9606ZM16.3644 10.7317H19.4972L14.8728 20.3844L14.6708 19.7287C14.3881 18.8106 13.7621 18.0567 12.9261 17.6097L16.3644 10.7317ZM7.19775 25.103L5.89187 26.4089H2.89643C2.53563 26.4089 2.24349 26.1168 2.24349 25.756V21.837C2.24349 21.4762 2.53563 21.1841 2.89643 21.1841H5.89187L7.19775 22.4899H7.83183L8.59382 25.103H7.19775ZM31.6378 37.7848V40.1273H10.7344V37.7848L12.3109 36.2083H14.0004V34.9025H12.813L8.86712 21.3739C8.63287 20.5688 8.85499 19.6978 9.44869 19.1041C10.1003 18.4525 11.0736 18.2546 11.9285 18.5952L12.0766 18.6558C12.7255 18.9156 13.2155 19.4474 13.4215 20.1138L17.9705 34.9038H15.3076V36.2097H30.0613L31.6378 37.7848ZM33.7877 21.3725L29.8418 34.9011H24.6843L29.2347 20.1111C29.4393 19.4433 29.9294 18.9116 30.5796 18.6517L30.7277 18.5925C31.5826 18.2506 32.5559 18.4498 33.2075 19.1014C33.7999 19.6964 34.022 20.5661 33.7877 21.3725ZM34.9038 25.103H34.061L34.823 22.4899H34.9051H36.211H37.5169V23.1429H38.8228V22.4899H40.1286V25.103H38.8228V24.4501H37.5169V25.103H36.211H34.9038Z" fill="#FFD400"/>
</svg>
