<svg width="42" height="42" viewBox="0 0 42 42" fill="none" xmlns="http://www.w3.org/2000/svg">
<path d="M3.54937 2.24216H4.85794V34.9604H3.54937V2.24216ZM3.54937 36.2703H4.85794V37.5788H3.54937V36.2703ZM6.1665 40.196H2.2408V38.8874H6.1665V40.196ZM37.5761 2.24216H38.8847V34.9604H37.5761V2.24216ZM37.5761 36.2703H38.8847V37.5788H37.5761V36.2703ZM6.1665 4.79602L8.23976 3.55208H34.1943L36.2676 4.79602V6.32269L33.8308 4.86065H8.6019L6.16517 6.32269V4.79602H6.1665ZM6.1665 19.9105V7.84799L8.96539 6.16921H33.4687L36.2676 7.84799V19.9105V31.0347V37.5788H34.959V41.5045H41.5032V37.5788H40.1946V0.933594H36.2689V3.26936L34.5578 2.24216H7.87895L6.16786 3.26936V0.933594H2.24216V37.5788H0.933594V41.5045H7.47776V37.5788H6.16919V31.0347V19.9105H6.1665ZM40.1946 40.196H36.2689V38.8874H40.1946V40.196Z" fill="#FFD400"/>
<path d="M15.5226 10.7973C14.6259 10.7973 13.4601 11.8379 13.3793 12.8018L13.1464 15.5253H10.5683C9.97866 15.5253 9.49805 16.0046 9.49805 16.5956V17.7965C9.49805 19.0485 10.5172 20.0676 11.7692 20.0676H12.756L12.589 22.0089C10.8133 22.3724 9.49805 23.965 9.49805 25.8V26.8703H10.2991V32.2028C10.2991 33.2354 11.1378 34.0741 12.1704 34.0741H14.5707C15.6033 34.0741 16.4421 33.2354 16.4421 32.2028V29.6718H26.3075V32.2028C26.3075 33.2354 27.1462 34.0741 28.1774 34.0741H30.5791C31.6104 34.0741 32.4491 33.2354 32.4491 32.2028V26.8703H33.2501V25.4001C33.2501 23.7362 32.0587 22.3105 30.4445 21.9954C30.4216 21.3371 30.2883 20.6882 30.0447 20.0663H30.979C32.231 20.0663 33.2501 19.0471 33.2501 17.7951V16.5943C33.2501 16.0046 32.7709 15.524 32.1798 15.524H29.6045L29.3689 12.8018C29.2894 11.8366 28.3067 10.7959 27.2916 10.7959C26.4205 10.7972 16.4784 10.7973 15.5226 10.7973ZM13.0306 16.8662L12.8718 18.7281H11.7692C11.2549 18.7281 10.8389 18.3107 10.8389 17.7978V16.8675H13.0306V16.8662ZM30.9198 23.6029C31.5175 23.9852 31.9093 24.6557 31.9093 25.4001V25.5307H30.4459L30.3005 23.681C30.3018 23.4979 30.3207 23.405 30.3207 23.405C30.3247 23.3834 30.3287 23.3646 30.3328 23.3444C30.4957 23.3875 30.6505 23.4508 30.7972 23.5302L30.9198 23.6029ZM27.647 31.4543L28.6823 32.1449C29.1036 32.4263 29.6529 32.4263 30.0743 32.1449L31.1096 31.4543V32.2041C31.1096 32.4976 30.8713 32.7359 30.5778 32.7359H28.1761C27.8839 32.7359 27.6456 32.4976 27.6456 32.2041V31.4543H27.647ZM11.6386 31.4543L12.6739 32.1449C13.0952 32.4263 13.6445 32.4263 14.0659 32.1449L15.1012 31.4543V32.2041C15.1012 32.4976 14.8629 32.7359 14.5694 32.7359H12.169C11.8755 32.7359 11.6373 32.4976 11.6373 32.2041V31.4543H11.6386ZM12.4692 23.436L12.301 25.4001V25.5307H10.8524C10.952 24.5762 11.574 23.7725 12.4692 23.436ZM24.5762 16.3263C22.7035 16.3263 20.9466 17.2216 19.8441 18.7267H17.2094C16.6238 18.7267 16.1715 18.2138 16.2442 17.6322L16.4905 14.1696C16.504 14 16.6453 13.8694 16.815 13.8694L26.1351 13.8317C26.2994 13.8317 26.438 13.9677 26.4582 14.1319L26.6817 16.7127C25.9561 16.4004 25.3853 16.3263 24.5762 16.3263ZM14.8696 25.9306H13.6432C13.6418 25.8875 13.6405 25.8431 13.6405 25.7986L13.6392 25.734L14.7929 24.8684H19.3486C19.5425 25.2494 19.774 25.6048 20.0433 25.9292H17.476H14.8696V25.9306ZM29.0942 22.5461C29.0727 22.8194 29.0296 23.0805 28.9663 23.3242L28.9408 23.4171C28.4009 25.3719 26.6171 26.7302 24.5748 26.7302C23.7078 26.7302 22.8664 26.4839 22.1381 26.0181C21.3613 25.5267 20.7407 24.7903 20.3893 23.9435C20.1577 23.3834 20.0406 22.7965 20.0406 22.1987C20.0406 21.3304 20.287 20.489 20.7528 19.7633C21.5875 18.448 23.0159 17.6645 24.5735 17.6645C25.5886 17.6645 26.5484 17.993 27.3508 18.6163C27.9364 19.0687 28.4049 19.6637 28.7092 20.3369C28.9731 20.9265 29.1077 21.5525 29.1077 22.1974C29.109 22.3145 29.105 22.4249 29.0942 22.5461ZM28.0132 17.468L27.5972 13.4332C27.5204 12.9028 27.0748 12.4935 26.5377 12.4935L16.3384 12.5312C15.7972 12.5312 15.3408 12.9338 15.2735 13.4709L14.9019 17.5797C14.7363 18.9004 15.7662 20.0676 17.0977 20.0676H19.1063C18.8384 20.7488 18.7024 21.4637 18.7024 22.2001C18.7024 22.647 18.7549 23.0926 18.8572 23.5302H14.3473L13.763 23.9677L14.7121 12.9136C14.7364 12.6228 15.1739 12.0627 15.6384 12.0627H27.1085C27.5904 12.0627 27.993 12.4316 28.0334 12.9122L28.4547 17.7884C28.4319 17.7668 28.1828 17.5932 28.0132 17.468ZM17.4746 27.2701H21.6265C22.5218 27.7938 23.5395 28.0711 24.5748 28.0711C26.329 28.0711 27.9997 27.2674 29.105 25.9319C29.1009 25.9938 29.0956 26.0558 29.0888 26.115C28.9906 26.9026 28.5153 27.6093 27.8193 28.0038C27.5312 28.1694 27.2189 28.2731 26.8877 28.3135C26.7867 28.3269 26.6804 28.3323 26.5767 28.3323H16.1715C16.0678 28.3323 15.9601 28.3269 15.8578 28.3135C15.5293 28.2731 15.2143 28.1694 14.9221 28.0011C14.6058 27.8234 14.3271 27.5717 14.1103 27.2701H14.8683H17.4746ZM14.6475 29.3554C14.7983 29.4214 14.9517 29.4766 15.1025 29.521V29.8428L13.9528 30.6102C13.6001 30.8458 13.141 30.8458 12.7883 30.6102L11.6386 29.8428V29.0525V27.4424V26.8703H12.4504C12.6321 27.499 12.9808 28.0805 13.448 28.545C13.9151 29.0095 14.6475 29.3554 14.6475 29.3554ZM31.1096 29.0525V29.8428L29.9599 30.6102C29.6071 30.8458 29.1481 30.8458 28.7954 30.6102L27.6456 29.8428V29.521C27.7964 29.4766 27.9499 29.4214 28.0993 29.3568C28.0993 29.3568 28.8277 29.0081 29.2962 28.5437C29.7647 28.0792 30.1093 27.499 30.2924 26.8716H31.1082V27.4438L31.1096 29.0525ZM29.7189 16.8662H31.9093V17.7965C31.9093 18.3107 31.4919 18.7267 30.979 18.7267H29.8791L29.7189 16.8662Z" fill="#FFD400"/>
<path d="M10.3 28.333H6.16699V29.6725H10.3V28.333Z" fill="#FFD400"/>
<path d="M36.4045 28.333H32.2715V29.6725H36.4045V28.333Z" fill="#FFD400"/>
</svg>
