<svg width="58" height="65" viewBox="0 0 58 65" xmlns="http://www.w3.org/2000/svg">
<path d="M58 0H0V58.0348H9.87582L16.8369 65L23.7972 58.0348H58V0Z"/>
<path d="M17.2372 22.8105C15.8823 22.8105 15.0126 23.2274 14.1437 24.0604L14.124 24.0363C13.2098 22.923 11.5529 22.7594 10.3111 23.4902L9.25977 24.1085V23.0712H7.24316V31.284H9.25977V25.7278C9.81572 24.9641 10.4585 24.6342 11.0495 24.6342C12.3015 24.6342 13.0311 25.4328 13.0311 26.8739V31.284H15.0294V26.7527C15.0294 26.4052 14.9959 26.0753 14.9251 25.7628C15.4993 24.9284 16.1946 24.6342 16.8206 24.6342C18.0886 24.6342 18.8022 25.4328 18.8022 26.8739V31.284H20.8173V26.7527C20.8173 24.3735 19.253 22.8105 17.2372 22.8105Z" fill="currentColor"/>
<path d="M28.9811 23.6433C28.3025 23.1578 27.4518 22.8789 26.461 22.8789C24.1672 22.8789 22.3242 24.7894 22.3242 27.1861C22.3242 29.5653 24.1672 31.4743 26.461 31.4743C27.4518 31.4743 28.3025 31.1976 28.9811 30.7107V31.2838H30.9794V23.0709H28.9811V23.6433ZM28.9811 28.5754C28.4069 29.4258 27.6087 29.739 26.7565 29.739C25.3484 29.739 24.3226 28.5403 24.3226 27.1861C24.3226 25.8136 25.3484 24.6164 26.7565 24.6164C27.6087 24.6164 28.4069 24.9281 28.9811 25.7793V28.5754Z" fill="currentColor"/>
<path d="M37.5039 26.4565L35.9733 26.2134C35.0868 26.0579 34.8103 25.6753 34.8103 25.276C34.8103 24.7898 35.3137 24.3905 36.287 24.3905C37.226 24.3905 37.9906 24.7547 38.0599 25.5892L39.9196 25.5709C39.7285 23.3312 37.6951 22.8457 36.287 22.8457C34.2361 22.8457 32.8287 23.8356 32.8287 25.4848C32.8287 26.977 34.0099 27.6201 35.2612 27.8457L37.0516 28.1406C37.6951 28.2626 38.0424 28.5757 38.0424 29.0094C38.0424 29.5657 37.3646 29.9124 36.392 29.9124C35.2794 29.9124 34.5491 29.4949 34.3747 28.5232L32.5332 28.5049C32.7244 30.7629 34.4623 31.5441 36.3395 31.5441C38.4072 31.5441 39.9532 30.5892 39.9532 28.8356C39.9532 27.2383 38.7545 26.682 37.5039 26.4565Z" fill="currentColor"/>
<path d="M13.3092 8.51044C12.6307 8.02497 11.7799 7.74609 10.7892 7.74609C8.4953 7.74609 6.65234 9.65659 6.65234 12.0533C6.65234 14.4317 8.4953 16.3415 10.7892 16.3415C11.7799 16.3415 12.6307 16.0648 13.3092 15.5772V16.1502H15.3075V7.93809H13.3092V8.51044ZM13.3092 13.4425C12.7357 14.293 11.9368 14.6055 11.0846 14.6055C9.67652 14.6055 8.65071 13.4075 8.65071 12.0533C8.65071 10.6808 9.67652 9.48284 11.0846 9.48284C11.9368 9.48284 12.7357 9.7953 13.3092 10.6465V13.4425Z" fill="currentColor"/>
<path d="M23.3959 13.3711C22.7713 14.153 21.9877 14.5866 21.2589 14.5866C20.0061 14.5866 19.2423 13.7705 19.2423 12.3476V7.9375H17.2432V12.4688C17.2432 14.4684 18.2624 15.8912 19.8683 16.2935C20.4176 16.4314 21.0013 16.3504 21.5317 16.1518L23.3959 15.4554V16.1496H25.3942V7.9375H23.3959V13.3711Z" fill="currentColor"/>
<path d="M38.6786 7.74609C36.1753 7.74609 34.2988 9.56899 34.2988 12.0526C34.2988 14.5537 36.1753 16.4109 38.6786 16.4109C41.1643 16.4109 43.0416 14.5537 43.0416 12.0526C43.0416 9.56899 41.1643 7.74609 38.6786 7.74609ZM38.6786 14.5872C37.2537 14.5872 36.2986 13.4593 36.2986 12.0526C36.2986 10.6633 37.2537 9.56899 38.6786 9.56899C40.0867 9.56899 41.0432 10.6633 41.0432 12.0526C41.0432 13.4593 40.0867 14.5872 38.6786 14.5872Z" fill="currentColor"/>
<path d="M31.8813 14.5527C30.9087 14.5527 30.3177 14.084 30.3177 12.9897V9.62059H33.3594V7.93713H30.3177V5.28711H28.5062L28.3194 7.93713H27.1338V9.02561L28.3194 9.59431V12.9897C28.3194 15.1075 29.5349 16.4099 31.4997 16.4099C32.2118 16.4099 32.6284 16.3405 33.5506 16.0639L33.2719 14.3439C32.8378 14.4651 32.3336 14.5527 31.8813 14.5527Z" fill="currentColor"/>
<path d="M18.0417 40.3848C15.4173 40.3848 13.6787 42.2427 13.6787 44.6912C13.6787 47.123 15.4173 48.9802 18.0417 48.9802C19.919 48.9802 21.4314 48.0253 21.9005 46.5141H19.7621C19.4666 47.0186 18.8931 47.2785 18.0942 47.2785C16.7036 47.2785 15.9383 46.4973 15.6953 45.4724H21.9866H22.0049C22.0559 45.1599 22.0559 44.8475 22.0559 44.5533C22.0392 42.0865 20.3188 40.3848 18.0417 40.3848ZM15.6785 43.9795C15.9033 42.9202 16.6511 42.0865 17.9374 42.0865C19.1368 42.0865 19.8664 42.8158 20.005 43.9795H15.6785Z" fill="currentColor"/>
<path d="M28.7216 40.4199C28.6742 40.4199 28.6267 40.4199 28.58 40.4214C27.8198 40.4418 27.1055 40.7842 26.5663 41.3208L25.7324 42.1508V40.5769H23.7158V48.789H25.7324V43.6846C26.4445 42.8159 27.4171 42.364 28.7216 42.3122V40.4199Z" fill="currentColor"/>
<path d="M29.8324 46.7051C29.1539 46.7051 28.5986 47.2088 28.5986 47.887C28.5986 48.5805 29.1539 49.0843 29.8324 49.0843C30.5094 49.0843 31.0836 48.5805 31.0836 47.887C31.0836 47.2088 30.5094 46.7051 29.8324 46.7051Z" fill="currentColor"/>
<path d="M38.4691 46.0108C37.8446 46.7927 37.0617 47.227 36.3321 47.227C35.0794 47.227 34.3155 46.4101 34.3155 44.9873V40.5771H32.3164V45.1085C32.3164 47.108 33.3364 48.5309 34.9415 48.9331C35.4909 49.0711 36.0746 48.9901 36.605 48.7915L38.4691 48.095V48.79H40.4675V40.5771H38.4691V46.0108Z" fill="currentColor"/>
<path d="M49.3093 40.5771H42.0447V42.2431H46.4245L41.9229 47.8519V48.79H49.3093V47.1234H44.8945L49.3093 41.6532V40.5771Z" fill="currentColor"/>
<path d="M10.8874 47.1926C9.91483 47.1926 9.32385 46.7239 9.32385 45.6296V42.2605H12.3655V40.577H9.32385V37.9277H7.51227L7.32549 40.577H6.14062V41.6655L7.32549 42.2342V45.6296C7.32549 47.7474 8.541 49.0498 10.5058 49.0498C11.2179 49.0498 11.6345 48.9804 12.5567 48.7038L12.278 46.9838C11.8439 47.105 11.3397 47.1926 10.8874 47.1926Z" fill="currentColor"/>
</svg>
