<svg width="48" height="48" viewBox="0 0 48 48" fill="none" xmlns="http://www.w3.org/2000/svg">
<path d="M1.5 47.25H27C27.414 47.25 27.75 46.9147 27.75 46.5V32.871C27.75 31.302 27.1395 29.8275 26.0303 28.7197C24.921 27.6105 23.4465 27 21.8783 27H18C17.5868 27 17.25 26.664 17.25 26.25V24.927C19.3867 24.0885 21.0885 22.3867 21.927 20.25H22.5C24.1545 20.25 25.5 18.9045 25.5 17.25C25.5 15.5955 24.1545 14.25 22.5 14.25V13.5H24.75C25.164 13.5 25.5 13.164 25.5 12.75V9.75C25.5 9.336 25.164 9 24.75 9H23.9618C23.5785 4.38825 19.7092 0.75 15 0.75H13.5C8.79075 0.75 4.9215 4.38825 4.53825 9H3.75C3.336 9 3 9.336 3 9.75V12.75C3 13.164 3.336 13.5 3.75 13.5H6V14.25C4.3455 14.25 3 15.5955 3 17.25C3 18.9045 4.3455 20.25 6 20.25H6.573C7.4115 22.3867 9.11325 24.0885 11.25 24.927V26.25C11.25 26.664 10.9132 27 10.5 27H6.62175C5.0535 27 3.579 27.6105 2.46975 28.7197C1.3605 29.8282 0.75 31.302 0.75 32.871V46.5C0.75 46.9147 1.086 47.25 1.5 47.25ZM24.9697 29.7803C25.7955 30.606 26.25 31.7032 26.25 32.871V45.75H24.75V38.25C24.75 38.0505 24.6713 37.86 24.5303 37.7197C22.737 35.9265 21.75 33.543 21.75 31.0072V28.5H21.8783C23.046 28.5 24.144 28.9545 24.9697 29.7803ZM24 17.25C24 18.0772 23.3272 18.75 22.5 18.75H22.3568C22.4468 18.2625 22.5 17.763 22.5 17.25V15.75C23.3272 15.75 24 16.4227 24 17.25ZM15 2.25V6H13.5V2.25H15ZM12 2.4015V6.75C12 7.164 12.336 7.5 12.75 7.5H15.75C16.164 7.5 16.5 7.164 16.5 6.75V2.4015C19.68 3.0495 22.1348 5.7165 22.4618 9H6.03825C6.36525 5.71575 8.82 3.0495 12 2.4015ZM4.5 10.5H24V12H4.5V10.5ZM6 18.75C5.17275 18.75 4.5 18.0772 4.5 17.25C4.5 16.4227 5.17275 15.75 6 15.75V17.25C6 17.763 6.05325 18.2625 6.14325 18.75H6ZM7.5 17.25V13.5H21V17.25C21 20.9715 17.9715 24 14.25 24C10.5285 24 7.5 20.9715 7.5 17.25ZM12.75 26.25V25.3567C13.2375 25.4467 13.737 25.5 14.25 25.5C14.763 25.5 15.2625 25.4467 15.75 25.3567V26.25C15.75 27.2265 16.3792 28.0515 17.25 28.362V28.5C17.25 30.1545 15.9045 31.5 14.25 31.5C12.5955 31.5 11.25 30.1545 11.25 28.5V28.362C12.1208 28.0515 12.75 27.2265 12.75 26.25ZM14.25 33C16.7318 33 18.75 30.9818 18.75 28.5H20.25V31.0072C20.25 33.8377 21.3127 36.5055 23.25 38.5545V45.75H5.25V38.5545C7.18725 36.5055 8.25 33.8377 8.25 31.0072V28.5H9.75C9.75 30.9818 11.7682 33 14.25 33ZM2.25 32.871C2.25 31.7032 2.7045 30.6053 3.53025 29.7803C4.356 28.9545 5.454 28.5 6.62175 28.5H6.75V31.0072C6.75 33.543 5.763 35.9272 3.96975 37.7197C3.82875 37.86 3.75 38.0505 3.75 38.25V45.75H2.25V32.871Z" fill="#005AAB"/>
<path d="M29.25 42.0372C29.25 44.3517 30.6518 46.4277 32.7383 47.204C32.9685 47.2887 33.2257 47.2565 33.4275 47.117C33.63 46.976 33.75 46.7457 33.75 46.5005V42.3365L34.5 41.5482L35.25 42.3365V46.5005C35.25 46.7457 35.37 46.976 35.5718 47.1162C35.6993 47.2047 35.8492 47.2505 36 47.2505C36.0877 47.2505 36.1762 47.2347 36.2617 47.204C38.3482 46.4277 39.75 44.3517 39.75 42.0372C39.75 39.9132 38.5635 37.9887 36.75 37.0887V24.3237C38.5635 23.4245 39.75 21.4992 39.75 19.3752C39.75 17.0607 38.3482 14.9847 36.2617 14.2092C36.0307 14.123 35.7735 14.156 35.5725 14.2962C35.37 14.4365 35.25 14.6667 35.25 14.912V19.0752L34.5 19.8635L33.75 19.0752V14.912C33.75 14.666 33.63 14.4365 33.4282 14.2962C33.2257 14.1552 32.9693 14.1222 32.739 14.2085C30.6525 14.9847 29.25 17.0607 29.25 19.3752C29.25 21.5 30.4365 23.4245 32.25 24.3237V37.0887C30.4365 37.988 29.25 39.9132 29.25 42.0372ZM33.2617 23.1297C31.7595 22.5702 30.75 21.0612 30.75 19.3752C30.75 18.1002 31.3238 16.9272 32.25 16.1885V19.3752C32.25 19.5672 32.3243 19.7525 32.4563 19.892L33.9563 21.4692C34.2398 21.767 34.7595 21.767 35.043 21.4692L36.543 19.892C36.6757 19.7525 36.75 19.5672 36.75 19.3752V16.1885C37.6763 16.928 38.25 18.1002 38.25 19.3752C38.25 21.0612 37.2405 22.5702 35.7383 23.1297C35.445 23.2385 35.25 23.519 35.25 23.8325V37.5807C35.25 37.8942 35.445 38.174 35.7383 38.2842C37.2405 38.8422 38.25 40.3512 38.25 42.0372C38.25 43.3122 37.6763 44.4852 36.75 45.224V42.0372C36.75 41.8445 36.6757 41.66 36.5437 41.5205L35.0437 39.9432C34.902 39.7947 34.7055 39.71 34.5 39.71C34.2945 39.71 34.098 39.794 33.9563 39.9432L32.4563 41.5205C32.3243 41.66 32.25 41.8445 32.25 42.0372V45.224C31.3238 44.4852 30.75 43.3122 30.75 42.0372C30.75 40.3512 31.7595 38.8422 33.2617 38.2835C33.555 38.1732 33.75 37.8935 33.75 37.58V23.8325C33.75 23.519 33.555 23.2385 33.2617 23.1297Z" fill="#005AAB"/>
<path d="M46.5 0.75H40.5C40.086 0.75 39.75 1.086 39.75 1.5V7.5C39.75 7.69875 39.8287 7.89 39.9697 8.03025L41.25 9.3105V25.1895L39.9697 26.4697C39.8287 26.61 39.75 26.8005 39.75 27V33C39.75 33.4147 40.086 33.75 40.5 33.75H46.5C46.914 33.75 47.25 33.4147 47.25 33V27C47.25 26.8005 47.1713 26.61 47.0303 26.4697L45.75 25.1895V9.3105L47.0303 8.03025C47.1713 7.89 47.25 7.69875 47.25 7.5V1.5C47.25 1.086 46.914 0.75 46.5 0.75ZM45.75 7.1895L44.4697 8.46975C44.3287 8.61 44.25 8.80125 44.25 9V25.5C44.25 25.6995 44.3287 25.89 44.4697 26.0303L45.75 27.3105V32.25H41.25V27.3105L42.5303 26.0303C42.6713 25.89 42.75 25.6995 42.75 25.5V9C42.75 8.80125 42.6713 8.61 42.5303 8.46975L41.25 7.1895V2.25H45.75V7.1895Z" fill="#005AAB"/>
</svg>
