<svg width="48" height="48" viewBox="0 0 48 48" fill="none" xmlns="http://www.w3.org/2000/svg">
<path fill-rule="evenodd" clip-rule="evenodd" d="M31.5 8.25H46.5C46.914 8.25 47.25 8.586 47.25 9V18C47.25 18.414 46.914 18.75 46.5 18.75H45.75V42.75H46.5C46.914 42.75 47.25 43.086 47.25 43.5V46.5C47.25 46.914 46.914 47.25 46.5 47.25H1.5C1.086 47.25 0.75 46.914 0.75 46.5V43.5C0.75 43.086 1.086 42.75 1.5 42.75H2.25V18.75H1.5C1.086 18.75 0.75 18.414 0.75 18V9C0.75 8.586 1.086 8.25 1.5 8.25H16.5C16.5 4.1145 19.8645 0.75 24 0.75C28.1355 0.75 31.5 4.1145 31.5 8.25ZM30 8.25C30 4.94175 27.3083 2.25 24 2.25C20.6917 2.25 18 4.94175 18 8.25C18 11.5583 20.6917 14.25 24 14.25C27.3083 14.25 30 11.5583 30 8.25ZM2.25 44.25V45.75H45.75V44.25H2.25ZM2.25 9.75V17.25H45.75V9.75H31.3485C30.6517 13.1693 27.6217 15.75 24 15.75C20.3783 15.75 17.3482 13.1693 16.6515 9.75H2.25ZM9.75 24V39.75V41.25V42.75H21.75V41.25V39.75V24C21.75 23.5868 21.4132 23.25 21 23.25H10.5C10.0868 23.25 9.75 23.5868 9.75 24ZM26.25 39.75V24C26.25 23.5868 26.5868 23.25 27 23.25H37.5C37.9132 23.25 38.25 23.5868 38.25 24V39.75V41.25V42.75H26.25V41.25V39.75ZM5.25 18.75H3.75V42.75H5.25H6.75H8.25V24C8.25 22.7595 9.2595 21.75 10.5 21.75H21C22.2405 21.75 23.25 22.7595 23.25 24V42.75H24.75V24C24.75 22.7595 25.7595 21.75 27 21.75H37.5C38.7405 21.75 39.75 22.7595 39.75 24V42.75H41.25H42.75H44.25V18.75H42.75H41.25H6.75H5.25Z" fill="#005AAB"/>
<path d="M19.5 24.75H12C11.586 24.75 11.25 25.086 11.25 25.5V30C11.25 30.414 11.586 30.75 12 30.75H19.5C19.914 30.75 20.25 30.414 20.25 30V25.5C20.25 25.086 19.914 24.75 19.5 24.75ZM18.75 29.25H12.75V26.25H18.75V29.25Z" fill="#005AAB"/>
<path d="M36 24.75H28.5C28.086 24.75 27.75 25.086 27.75 25.5V30C27.75 30.414 28.086 30.75 28.5 30.75H36C36.414 30.75 36.75 30.414 36.75 30V25.5C36.75 25.086 36.414 24.75 36 24.75ZM35.25 29.25H29.25V26.25H35.25V29.25Z" fill="#005AAB"/>
<path d="M19.5 32H12C11.586 32 11.25 32.336 11.25 32.75V37.25C11.25 37.664 11.586 38 12 38H19.5C19.914 38 20.25 37.664 20.25 37.25V32.75C20.25 32.336 19.914 32 19.5 32ZM18.75 36.5H12.75V33.5H18.75V36.5Z" fill="#005AAB"/>
<path d="M36 32H28.5C28.086 32 27.75 32.336 27.75 32.75V37.25C27.75 37.664 28.086 38 28.5 38H36C36.414 38 36.75 37.664 36.75 37.25V32.75C36.75 32.336 36.414 32 36 32ZM35.25 36.5H29.25V33.5H35.25V36.5Z" fill="#005AAB"/>
</svg>
