<svg width="48" height="48" viewBox="0 0 48 48" fill="none" xmlns="http://www.w3.org/2000/svg">
<path d="M15.75 23.25C10.7873 23.25 6.75 27.2873 6.75 32.25C6.75 37.2128 10.7873 41.25 15.75 41.25C20.7128 41.25 24.75 37.2128 24.75 32.25C24.75 27.2873 20.7128 23.25 15.75 23.25ZM23.25 32.25C23.25 32.9362 23.1495 33.5977 22.9762 34.23L19.512 32.25L22.9762 30.27C23.1495 30.9023 23.25 31.5638 23.25 32.25ZM8.25 32.25C8.25 31.5638 8.3505 30.9023 8.52375 30.27L11.988 32.25L8.52375 34.23C8.3505 33.5977 8.25 32.9362 8.25 32.25ZM17.25 32.25C17.25 33.0773 16.5773 33.75 15.75 33.75C14.9227 33.75 14.25 33.0773 14.25 32.25C14.25 31.4227 14.9227 30.75 15.75 30.75C16.5773 30.75 17.25 31.4227 17.25 32.25ZM17.2642 29.6753C17.1487 29.607 17.034 29.5365 16.9088 29.484L19.1445 25.5713C19.6252 25.8165 20.079 26.1075 20.493 26.4465L17.2642 29.6753ZM14.2358 29.6753L11.007 26.4465C11.421 26.1075 11.8748 25.8165 12.3555 25.5713L14.5912 29.484C14.466 29.5365 14.3513 29.6063 14.2358 29.6753ZM13.1752 30.7357C13.107 30.8512 13.0365 30.966 12.984 31.0913L9.07125 28.8555C9.3165 28.3747 9.6075 27.921 9.9465 27.507L13.1752 30.7357ZM12.9833 33.4087C13.0358 33.534 13.1062 33.6488 13.1745 33.7643L9.94575 36.993C9.60675 36.579 9.31575 36.1253 9.0705 35.6445L12.9833 33.4087ZM14.2358 34.8247C14.3513 34.893 14.466 34.9635 14.5912 35.016L12.3555 38.9287C11.8748 38.6835 11.421 38.3925 11.007 38.0535L14.2358 34.8247ZM17.2642 34.8247L20.493 38.0535C20.079 38.3925 19.6252 38.6835 19.1445 38.9287L16.9088 35.016C17.034 34.9635 17.1487 34.8937 17.2642 34.8247ZM18.3248 33.7643C18.393 33.6488 18.4635 33.534 18.516 33.4087L22.4288 35.6445C22.1835 36.1253 21.8925 36.579 21.5535 36.993L18.3248 33.7643ZM18.5167 31.0913C18.4642 30.966 18.3938 30.8512 18.3255 30.7357L21.5543 27.507C21.8933 27.921 22.1842 28.3747 22.4295 28.8555L18.5167 31.0913ZM17.73 25.0238L15.75 28.488L13.77 25.0238C14.4023 24.8505 15.0638 24.75 15.75 24.75C16.4362 24.75 17.0977 24.8505 17.73 25.0238ZM13.77 39.4762L15.75 36.012L17.73 39.4762C17.0977 39.6495 16.4362 39.75 15.75 39.75C15.0638 39.75 14.4023 39.6495 13.77 39.4762Z" fill="#005AAB"/>
<path d="M32.25 0.75C23.979 0.75 17.25 7.479 17.25 15.75C17.25 16.2802 17.2868 16.8097 17.343 17.337C16.8188 17.2815 16.2885 17.25 15.75 17.25C7.479 17.25 0.75 23.979 0.75 32.25C0.75 40.521 7.479 47.25 15.75 47.25C24.021 47.25 30.75 40.521 30.75 32.25C30.75 31.7115 30.7185 31.1812 30.663 30.657C31.1895 30.7125 31.719 30.75 32.25 30.75C40.521 30.75 47.25 24.021 47.25 15.75C47.25 7.479 40.521 0.75 32.25 0.75ZM25.7962 41.2357L23.7803 39.2197L22.7197 40.2803L24.7357 42.2962C22.521 44.2793 19.656 45.537 16.5 45.7118V42.75H15V45.7118C11.844 45.537 8.979 44.2793 6.76425 42.2962L8.78025 40.2803L7.71975 39.2197L5.70375 41.2357C3.72075 39.021 2.463 36.156 2.28825 33H5.25V31.5H2.28825C2.463 28.344 3.72075 25.479 5.70375 23.2642L7.71975 25.2803L8.78025 24.2197L6.76425 22.2038C8.979 20.2207 11.844 18.963 15 18.7882V21.75H16.5V18.7882C19.656 18.963 22.521 20.2207 24.7357 22.2038L22.7197 24.2197L23.7803 25.2803L25.7962 23.2642C27.7793 25.479 29.037 28.344 29.2118 31.5H26.25V33H29.2118C29.037 36.156 27.7793 39.021 25.7962 41.2357ZM29.484 16.9088C29.5365 17.034 29.607 17.1487 29.6753 17.2642L26.4465 20.493C26.1075 20.079 25.8165 19.6252 25.5713 19.1445L29.484 16.9088ZM32.25 14.25C33.0773 14.25 33.75 14.9227 33.75 15.75C33.75 16.5773 33.0773 17.25 32.25 17.25C31.4228 17.25 30.75 16.5773 30.75 15.75C30.75 14.9227 31.4228 14.25 32.25 14.25ZM30.7357 18.3248C30.8512 18.393 30.966 18.4635 31.0913 18.516L28.8555 22.4288C28.3748 22.1835 27.921 21.8925 27.507 21.5535L30.7357 18.3248ZM32.25 19.512L34.23 22.9762C33.5977 23.1495 32.9362 23.25 32.25 23.25C31.5637 23.25 30.9023 23.1495 30.27 22.9762L32.25 19.512ZM35.6445 22.4288L33.4087 18.516C33.534 18.4635 33.6488 18.393 33.7643 18.3248L36.993 21.5535C36.579 21.8925 36.1253 22.1835 35.6445 22.4288ZM38.0535 20.493L34.8247 17.2642C34.893 17.1487 34.9635 17.034 35.016 16.9088L38.9287 19.1445C38.6835 19.6252 38.3925 20.079 38.0535 20.493ZM39.75 15.75C39.75 16.4362 39.6495 17.0977 39.4762 17.73L36.012 15.75L39.4762 13.77C39.6495 14.4023 39.75 15.0638 39.75 15.75ZM35.016 14.5912C34.9635 14.466 34.893 14.3513 34.8247 14.2358L38.0535 11.007C38.3925 11.421 38.6835 11.8748 38.9287 12.3555L35.016 14.5912ZM33.7643 13.1752C33.6488 13.107 33.534 13.0365 33.4087 12.984L35.6445 9.07125C36.1253 9.3165 36.579 9.6075 36.993 9.9465L33.7643 13.1752ZM32.25 11.988L30.27 8.52375C30.9023 8.3505 31.5637 8.25 32.25 8.25C32.9362 8.25 33.5977 8.3505 34.23 8.52375L32.25 11.988ZM28.8555 9.07125L31.0913 12.984C30.966 13.0365 30.8512 13.107 30.7357 13.1752L27.507 9.9465C27.921 9.6075 28.3748 9.3165 28.8555 9.07125ZM26.4465 11.007L29.6753 14.2358C29.607 14.3513 29.5365 14.466 29.484 14.5912L25.5713 12.3555C25.8165 11.8748 26.1075 11.421 26.4465 11.007ZM24.75 15.75C24.75 15.0638 24.8505 14.4023 25.0238 13.77L28.488 15.75L25.0238 17.73C24.8505 17.0977 24.75 16.4362 24.75 15.75ZM42.2962 24.7357L40.2803 22.7197L39.2197 23.7803L41.2357 25.7962C39.021 27.7793 36.156 29.037 33 29.2118V26.25H31.5V29.2178C31.1355 29.1975 30.774 29.1623 30.4148 29.1135C29.9933 27.1418 29.1817 25.3147 28.0672 23.712C29.3183 24.372 30.7402 24.75 32.25 24.75C37.2127 24.75 41.25 20.7127 41.25 15.75C41.25 10.7872 37.2127 6.75 32.25 6.75C27.2873 6.75 23.25 10.7872 23.25 15.75C23.25 17.2598 23.628 18.6817 24.288 19.9328C22.6852 18.8183 20.859 18.0075 18.8873 17.586C18.8385 17.226 18.8033 16.8645 18.783 16.5H21.75V15H18.7882C18.963 11.8433 20.2207 8.97825 22.2038 6.76425L24.2197 8.78025L25.2803 7.71975L23.2642 5.70375C25.4782 3.72075 28.344 2.463 31.5 2.28825V5.25H33V2.28825C36.156 2.463 39.0217 3.72075 41.2357 5.70375L39.2197 7.71975L40.2803 8.78025L42.2962 6.76425C44.2793 8.979 45.537 11.844 45.7118 15H42.75V16.5H45.7118C45.537 19.6567 44.2793 22.5217 42.2962 24.7357Z" fill="#005AAB"/>
</svg>
