<svg width="48" height="48" viewBox="0 0 48 48" fill="none" xmlns="http://www.w3.org/2000/svg">
<path d="M46.5 39.75H45.75V13.5C45.75 12.2595 44.7405 11.25 43.5 11.25H33.75V10.5H34.5C35.7405 10.5 36.75 9.4905 36.75 8.25C36.75 7.0095 35.7405 6 34.5 6H33.75C33.75 3.10575 31.395 0.75 28.5 0.75H19.5C16.605 0.75 14.25 3.10575 14.25 6H13.5C12.2595 6 11.25 7.0095 11.25 8.25C11.25 9.4905 12.2595 10.5 13.5 10.5H14.25V11.25H4.5C3.2595 11.25 2.25 12.2595 2.25 13.5V39.75H1.5C1.086 39.75 0.75 40.0853 0.75 40.5V43.5C0.75 45.5677 2.43225 47.25 4.5 47.25H43.5C45.5677 47.25 47.25 45.5677 47.25 43.5V40.5C47.25 40.0853 46.914 39.75 46.5 39.75ZM36.75 15.75H41.25V36.75H6.75V15.75H11.25V17.25H10.5C10.086 17.25 9.75 17.5853 9.75 18V21C9.75 21.4147 10.086 21.75 10.5 21.75H12.75V22.5C12.75 23.7405 13.7595 24.75 15 24.75H18C19.2405 24.75 20.25 23.7405 20.25 22.5V21.75H27.75V22.5C27.75 23.7405 28.7595 24.75 30 24.75H33C34.2405 24.75 35.25 23.7405 35.25 22.5V21.75H37.5C37.914 21.75 38.25 21.4147 38.25 21V18C38.25 17.5853 37.914 17.25 37.5 17.25H36.75V15.75ZM36.75 18.75V20.25H11.25V18.75H36.75ZM15.888 17.25C16.1985 16.3792 17.0235 15.75 18 15.75C18.9765 15.75 19.8015 16.3792 20.112 17.25H15.888ZM27.888 17.25C28.1985 16.3792 29.0235 15.75 30 15.75C30.9765 15.75 31.8015 16.3792 32.112 17.25H27.888ZM29.25 21.75H33.75V22.5C33.75 22.914 33.4132 23.25 33 23.25H30C29.5868 23.25 29.25 22.914 29.25 22.5V21.75ZM14.25 21.75H18.75V22.5C18.75 22.914 18.4132 23.25 18 23.25H15C14.5868 23.25 14.25 22.914 14.25 22.5V21.75ZM35.25 17.25H33.6742C33.3255 15.5407 31.8113 14.25 30 14.25C28.1887 14.25 26.6745 15.5407 26.3258 17.25H21.6742C21.3255 15.5407 19.8113 14.25 18 14.25C16.1888 14.25 14.6745 15.5407 14.3258 17.25H12.75V15.75C12.75 14.0955 14.0955 12.75 15.75 12.75H32.25C33.9045 12.75 35.25 14.0955 35.25 15.75V17.25ZM34.5 7.5C34.9132 7.5 35.25 7.836 35.25 8.25C35.25 8.664 34.9132 9 34.5 9H33.75V7.5H34.5ZM15.75 6C15.75 3.93225 17.4323 2.25 19.5 2.25H28.5C30.5677 2.25 32.25 3.93225 32.25 6V11.25H15.75V6ZM13.5 9C13.0868 9 12.75 8.664 12.75 8.25C12.75 7.836 13.0868 7.5 13.5 7.5H14.25V9H13.5ZM3.75 13.5C3.75 13.086 4.08675 12.75 4.5 12.75H12.405C12.0158 13.1835 11.7105 13.6905 11.5125 14.25H6C5.586 14.25 5.25 14.5852 5.25 15V37.5C5.25 37.9147 5.586 38.25 6 38.25H42C42.414 38.25 42.75 37.9147 42.75 37.5V15C42.75 14.5852 42.414 14.25 42 14.25H36.4875C36.2887 13.6905 35.9835 13.1835 35.595 12.75H43.5C43.9132 12.75 44.25 13.086 44.25 13.5V39.75H3.75V13.5ZM18 41.25H30V42C30 42.414 29.6632 42.75 29.25 42.75H18.75C18.3368 42.75 18 42.414 18 42V41.25ZM45.75 43.5C45.75 44.7405 44.7405 45.75 43.5 45.75H4.5C3.2595 45.75 2.25 44.7405 2.25 43.5V41.25H16.5V42C16.5 43.2405 17.5095 44.25 18.75 44.25H29.25C30.4905 44.25 31.5 43.2405 31.5 42V41.25H45.75V43.5Z" fill="#005AAB"/>
<path d="M28.5 3.75H19.5C18.2595 3.75 17.25 4.7595 17.25 6V9C17.25 9.41475 17.586 9.75 18 9.75H30C30.414 9.75 30.75 9.41475 30.75 9V6C30.75 4.7595 29.7405 3.75 28.5 3.75ZM29.25 8.25H18.75V6C18.75 5.586 19.0868 5.25 19.5 5.25H28.5C28.9132 5.25 29.25 5.586 29.25 6V8.25Z" fill="#005AAB"/>
<path d="M9 32.25H24C24.414 32.25 24.75 31.9148 24.75 31.5V27C24.75 26.5853 24.414 26.25 24 26.25H9C8.586 26.25 8.25 26.5853 8.25 27V31.5C8.25 31.9148 8.586 32.25 9 32.25ZM9.75 27.75H23.25V30.75H9.75V27.75Z" fill="#005AAB"/>
<path d="M8.25 33.75H39.75V35.25H8.25V33.75Z" fill="#005AAB"/>
<path d="M26.25 27.75H39.75V29.25H26.25V27.75Z" fill="#005AAB"/>
<path d="M26.25 30.75H39.75V32.25H26.25V30.75Z" fill="#005AAB"/>
</svg>
