<svg width="48" height="48" viewBox="0 0 48 48" fill="none" xmlns="http://www.w3.org/2000/svg">
<path d="M6.75 18V21C6.75 21.4148 7.08525 21.75 7.5 21.75H12C12.4148 21.75 12.75 21.4148 12.75 21V18C12.75 17.5853 12.4148 17.25 12 17.25H7.5C7.08525 17.25 6.75 17.5853 6.75 18ZM8.25 18.75H11.25V20.25H8.25V18.75Z" fill="#005AAB"/>
<path d="M12 23.25H7.5C7.08525 23.25 6.75 23.5853 6.75 24V27C6.75 27.4148 7.08525 27.75 7.5 27.75H12C12.4148 27.75 12.75 27.4148 12.75 27V24C12.75 23.5853 12.4148 23.25 12 23.25ZM11.25 26.25H8.25V24.75H11.25V26.25Z" fill="#005AAB"/>
<path d="M12 29.25H7.5C7.08525 29.25 6.75 29.5853 6.75 30V33C6.75 33.4148 7.08525 33.75 7.5 33.75H12C12.4148 33.75 12.75 33.4148 12.75 33V30C12.75 29.5853 12.4148 29.25 12 29.25ZM11.25 32.25H8.25V30.75H11.25V32.25Z" fill="#005AAB"/>
<path d="M12 35.25H7.5C7.08525 35.25 6.75 35.5853 6.75 36V39C6.75 39.4148 7.08525 39.75 7.5 39.75H12C12.4148 39.75 12.75 39.4148 12.75 39V36C12.75 35.5853 12.4148 35.25 12 35.25ZM11.25 38.25H8.25V36.75H11.25V38.25Z" fill="#005AAB"/>
<path d="M14.25 17.25H24.75V18.75H14.25V17.25Z" fill="#005AAB"/>
<path d="M14.25 20.25H24.75V21.75H14.25V20.25Z" fill="#005AAB"/>
<path d="M14.25 23.25H24.75V24.75H14.25V23.25Z" fill="#005AAB"/>
<path d="M14.25 26.25H24.75V27.75H14.25V26.25Z" fill="#005AAB"/>
<path d="M14.25 29.25H24.75V30.75H14.25V29.25Z" fill="#005AAB"/>
<path d="M14.25 32.25H24.75V33.75H14.25V32.25Z" fill="#005AAB"/>
<path d="M14.25 35.25H24.75V36.75H14.25V35.25Z" fill="#005AAB"/>
<path d="M14.25 38.25H24.75V39.75H14.25V38.25Z" fill="#005AAB"/>
<path d="M46.5 13.5H43.8877C43.578 12.207 43.0732 10.9867 42.384 9.8595L44.2282 8.01525C44.3693 7.87425 44.448 7.6845 44.448 7.485C44.448 7.2855 44.3693 7.095 44.2282 6.95475L41.046 3.7725C40.7648 3.49125 40.2668 3.49125 39.9855 3.7725L38.1413 5.61675C37.0132 4.92675 35.793 4.422 34.5 4.11225V1.5C34.5 1.08525 34.1647 0.75 33.75 0.75H29.25C28.8353 0.75 28.5 1.08525 28.5 1.5V4.11225C27.207 4.422 25.9867 4.92675 24.8595 5.616L23.0153 3.77175C22.8743 3.63075 22.6845 3.552 22.485 3.552C22.2855 3.552 22.095 3.63075 21.9548 3.77175L18.7725 6.954C18.6315 7.095 18.5527 7.28475 18.5527 7.48425C18.5527 7.68375 18.6315 7.87425 18.7725 8.0145L19.0072 8.25H10.5H1.5C1.08525 8.25 0.75 8.58525 0.75 9V46.5C0.75 46.9147 1.08525 47.25 1.5 47.25H30C30.4147 47.25 30.75 46.9147 30.75 46.5V45.75H40.5C40.5802 45.75 40.6605 45.7365 40.737 45.711L45.237 44.211C45.5438 44.109 45.75 43.8232 45.75 43.5C45.75 43.1768 45.5438 42.891 45.237 42.789L40.737 41.289C40.6605 41.2635 40.5802 41.25 40.5 41.25H30.75V39.75H39C39.0802 39.75 39.1605 39.7365 39.237 39.711L43.737 38.211C44.0438 38.109 44.25 37.8232 44.25 37.5C44.25 37.1768 44.0438 36.891 43.737 36.789L39.237 35.289C39.1605 35.2635 39.0802 35.25 39 35.25H30.75V32.25H33.75C34.1647 32.25 34.5 31.9147 34.5 31.5V28.8877C35.793 28.578 37.0132 28.0733 38.1405 27.384L39.9847 29.2283C40.1258 29.3693 40.3155 29.448 40.515 29.448C40.7145 29.448 40.905 29.3693 41.0452 29.2283L44.2275 26.046C44.3685 25.905 44.4473 25.7153 44.4473 25.5158C44.4473 25.3162 44.3685 25.1257 44.2275 24.9855L42.3833 23.1413C43.0725 22.0133 43.5772 20.793 43.887 19.5007H46.5C46.9147 19.5007 47.25 19.1655 47.25 18.7507V14.2507C47.25 13.8352 46.9147 13.5 46.5 13.5ZM10.5 15.75H21C21.4147 15.75 21.75 15.4148 21.75 15V14.25H26.25V41.25H5.25V14.25H9.75V15C9.75 15.4148 10.0852 15.75 10.5 15.75ZM20.25 9.75V14.25H11.25V9.75H20.25ZM29.25 45.75H2.25V9.75H9.75V12.75H4.5C4.08525 12.75 3.75 13.0852 3.75 13.5V42C3.75 42.4147 4.08525 42.75 4.5 42.75H27C27.4147 42.75 27.75 42.4147 27.75 42V13.5C27.75 13.0852 27.4147 12.75 27 12.75H21.75V9.75H29.25V45.75ZM30.75 18.2835L30.9585 18.501C31.2412 18.7957 31.758 18.7957 32.0408 18.501L33.5407 16.9387C33.675 16.7992 33.75 16.6125 33.75 16.4198V13.2705C34.6763 14.001 35.25 15.1605 35.25 16.4198C35.25 18.0863 34.2412 19.5772 32.7405 20.13C32.4457 20.2388 32.25 20.5192 32.25 20.8335V24.7118C32.0025 24.7343 31.7535 24.75 31.5 24.75C31.2495 24.75 30.999 24.7365 30.75 24.714V18.2835ZM33.75 21.3278C35.5643 20.436 36.75 18.5273 36.75 16.4198C36.75 14.1233 35.3475 12.0645 33.2595 11.2965C33.0285 11.2118 32.772 11.2455 32.571 11.385C32.37 11.5253 32.25 11.7548 32.25 12V16.1175L31.5 16.8983L30.75 16.1175V9C30.75 8.70525 30.576 8.45625 30.3293 8.334C30.7148 8.27925 31.1055 8.25 31.5 8.25C36.0488 8.25 39.75 11.9513 39.75 16.5C39.75 20.268 37.2075 23.4473 33.75 24.4305V21.3278ZM41.25 43.9597V43.041L42.6285 43.5L41.25 43.9597ZM39.75 42.75V44.25H30.75V42.75H39.75ZM39.75 37.9597V37.041L41.1285 37.5L39.75 37.9597ZM38.25 36.75V38.25H30.75V36.75H38.25ZM45.75 18H43.2817C42.9217 18 42.612 18.2565 42.5452 18.6097C42.2558 20.133 41.6707 21.5497 40.806 22.821C40.6027 23.118 40.6403 23.5185 40.8952 23.7735L42.6375 25.515L40.5158 27.6367L38.7743 25.8945C38.5193 25.6395 38.1195 25.6013 37.8218 25.8053C36.5505 26.67 35.1338 27.2558 33.6105 27.5445C33.2565 27.612 33 27.9217 33 28.2817V30.75H30.75V26.2192C30.999 26.238 31.2495 26.25 31.5 26.25C36.876 26.25 41.25 21.876 41.25 16.5C41.25 11.124 36.876 6.75 31.5 6.75C29.6528 6.75 27.8663 7.27125 26.3123 8.25H21.129L20.3625 7.48425L22.4842 5.3625L24.2257 7.10475C24.4815 7.35975 24.8805 7.39875 25.1782 7.194C26.4495 6.32925 27.8663 5.7435 29.3895 5.45475C29.7435 5.388 30 5.07825 30 4.71825V2.25H33V4.71825C33 5.07825 33.2565 5.388 33.6097 5.45475C35.133 5.74425 36.5498 6.32925 37.821 7.194C38.118 7.398 38.5193 7.35975 38.7735 7.10475L40.515 5.3625L42.6367 7.48425L40.8945 9.22575C40.6395 9.48075 40.602 9.8805 40.8053 10.1783C41.67 11.4495 42.2558 12.8663 42.5445 14.3895C42.612 14.7435 42.9217 15 43.2817 15H45.75V18Z" fill="#005AAB"/>
</svg>
